<svg width="19" height="19" viewBox="0 0 19 19" fill="none" xmlns="http://www.w3.org/2000/svg">
<g clip-path="url(#clip0_3362_28843)">
<path d="M18.187 14.995C18.187 15.4055 18.0239 15.7993 17.7336 16.0896C17.4433 16.3799 17.0495 16.543 16.639 16.543H2.70628C2.2957 16.543 1.90195 16.3799 1.61162 16.0896C1.3213 15.7993 1.1582 15.4055 1.1582 14.995L1.1582 6.48054C1.1582 6.06997 1.3213 5.67621 1.61162 5.38589C1.90195 5.09557 2.2957 4.93247 2.70628 4.93247L5.80243 4.93247L7.35051 2.61035L11.9947 2.61035L13.5428 4.93247L16.639 4.93247C17.0495 4.93247 17.4433 5.09557 17.7336 5.38589C18.0239 5.67621 18.187 6.06997 18.187 6.48054L18.187 14.995Z" stroke="white" stroke-width="1.54808" stroke-linecap="round" stroke-linejoin="round"/>
<path d="M9.67233 13.4472C11.3823 13.4472 12.7685 12.061 12.7685 10.351C12.7685 8.64108 11.3823 7.25488 9.67233 7.25488C7.96237 7.25488 6.57617 8.64108 6.57617 10.351C6.57617 12.061 7.96237 13.4472 9.67233 13.4472Z" stroke="white" stroke-width="1.54808" stroke-linecap="round" stroke-linejoin="round"/>
</g>
<defs>
<clipPath id="clip0_3362_28843">
<rect width="18.5769" height="18.5769" fill="white" transform="translate(0.384766 0.288086)"/>
</clipPath>
</defs>
</svg>
