<svg width="1440" height="349" viewBox="0 0 1440 349" fill="none" xmlns="http://www.w3.org/2000/svg">
<g filter="url(#filter0_d_2741_3404)">
<path d="M27.831 290.558C26.8119 301.746 28.3623 313.584 23.8985 323.917C20.8992 330.87 9.20895 340.31 1.64879 340.194C-5.91136 340.078 -20.2324 329.918 -20.3725 323.952C-20.9267 299.547 -18.9325 275.148 -14.4085 250.98C-13.3739 245.394 0.995988 237.127 8.53094 237.519C16.0659 237.912 28.0249 246.876 29.2981 253.099C31.7236 265.142 28.0307 277.978 26.8892 290.509L27.831 290.558Z" fill="#1E2C4F"/>
<path d="M71.624 288.248C70.6049 299.436 72.1552 311.273 67.6915 321.606C64.6922 328.56 53.0019 337.999 45.4418 337.883C37.8816 337.767 23.5606 327.607 23.4205 321.642C22.8663 297.237 24.8605 272.837 29.3844 248.669C30.4191 243.083 44.789 234.816 52.3239 235.209C59.8589 235.602 71.8179 244.566 73.0911 250.789C75.5166 262.831 71.8237 275.667 70.6821 288.199L71.624 288.248Z" fill="#1E2C4F"/>
<path d="M111.343 288.248C110.324 299.436 111.874 311.273 107.41 321.606C104.411 328.56 92.7207 337.999 85.1605 337.883C77.6004 337.767 63.2793 327.607 63.1392 321.642C62.5851 297.237 64.5792 272.837 69.1032 248.669C70.1378 243.083 84.5077 234.816 92.0427 235.209C99.5776 235.602 111.537 244.566 112.81 250.789C115.235 262.831 111.542 275.667 110.401 288.199L111.343 288.248Z" fill="#1E2C4F"/>
<path d="M151.062 288.248C150.042 299.436 151.593 311.273 147.129 321.606C144.13 328.56 132.439 337.999 124.879 337.883C117.319 337.767 102.998 327.607 102.858 321.642C102.304 297.237 104.298 272.837 108.822 248.669C109.857 243.083 124.226 234.816 131.761 235.209C139.296 235.602 151.255 244.566 152.529 250.789C154.954 262.831 151.261 275.667 150.12 288.199L151.062 288.248Z" fill="#1E2C4F"/>
<path d="M190.78 288.248C189.761 299.436 191.311 311.273 186.848 321.606C183.848 328.56 172.158 337.999 164.598 337.883C157.038 337.767 142.717 327.607 142.577 321.642C142.023 297.237 144.017 272.837 148.541 248.669C149.575 243.083 163.945 234.816 171.48 235.209C179.015 235.602 190.974 244.566 192.247 250.789C194.673 262.831 190.98 275.667 189.838 288.199L190.78 288.248Z" fill="#1E2C4F"/>
<path d="M230.499 288.248C229.48 299.436 231.03 311.273 226.566 321.606C223.567 328.56 211.877 337.999 204.317 337.883C196.757 337.767 182.436 327.607 182.295 321.642C181.741 297.237 183.735 272.837 188.259 248.669C189.294 243.083 203.664 234.816 211.199 235.209C218.734 235.602 230.693 244.566 231.966 250.789C234.392 262.831 230.699 275.667 229.557 288.199L230.499 288.248Z" fill="#1E2C4F"/>
<path d="M270.218 288.248C269.199 299.436 270.749 311.273 266.285 321.606C263.286 328.56 251.596 337.999 244.036 337.883C236.475 337.767 222.154 327.607 222.014 321.642C221.46 297.237 223.454 272.837 227.978 248.669C229.013 243.083 243.383 234.816 250.918 235.209C258.453 235.602 270.412 244.566 271.685 250.789C274.11 262.831 270.417 275.667 269.276 288.199L270.218 288.248Z" fill="#1E2C4F"/>
<path d="M309.937 288.248C308.917 299.436 310.468 311.273 306.004 321.606C303.005 328.56 291.314 337.999 283.754 337.883C276.194 337.767 261.873 327.607 261.733 321.642C261.179 297.237 263.173 272.837 267.697 248.669C268.732 243.083 283.101 234.816 290.636 235.209C298.171 235.602 310.13 244.566 311.404 250.789C313.829 262.831 310.136 275.667 308.995 288.199L309.937 288.248Z" fill="#1E2C4F"/>
<path d="M349.655 288.248C348.636 299.436 350.186 311.273 345.723 321.606C342.723 328.56 331.033 337.999 323.473 337.883C315.913 337.767 301.592 327.607 301.452 321.642C300.898 297.237 302.892 272.837 307.416 248.669C308.45 243.083 322.82 234.816 330.355 235.209C337.89 235.602 349.849 244.566 351.122 250.789C353.548 262.831 349.855 275.667 348.713 288.199L349.655 288.248Z" fill="#1E2C4F"/>
<path d="M389.374 288.248C388.355 299.436 389.905 311.273 385.441 321.606C382.442 328.56 370.752 337.999 363.192 337.883C355.632 337.767 341.311 327.607 341.17 321.642C340.616 297.237 342.61 272.837 347.134 248.669C348.169 243.083 362.539 234.816 370.074 235.209C377.609 235.602 389.568 244.566 390.841 250.789C393.267 262.831 389.574 275.667 388.432 288.199L389.374 288.248Z" fill="#1E2C4F"/>
<path d="M429.093 288.248C428.074 299.436 429.624 311.273 425.16 321.606C422.161 328.56 410.471 337.999 402.911 337.883C395.35 337.767 381.029 327.607 380.889 321.642C380.335 297.237 382.329 272.837 386.853 248.669C387.888 243.083 402.258 234.816 409.793 235.209C417.328 235.602 429.287 244.566 430.56 250.789C432.985 262.831 429.292 275.667 428.151 288.199L429.093 288.248Z" fill="#1E2C4F"/>
<path d="M468.812 288.248C467.792 299.436 469.343 311.273 464.879 321.606C461.88 328.56 450.189 337.999 442.629 337.883C435.069 337.767 420.748 327.607 420.608 321.642C420.054 297.237 422.048 272.837 426.572 248.669C427.607 243.083 441.976 234.816 449.511 235.209C457.046 235.602 469.005 244.566 470.279 250.789C472.704 262.831 469.011 275.667 467.87 288.199L468.812 288.248Z" fill="#1E2C4F"/>
<path d="M508.53 288.248C507.511 299.436 509.061 311.273 504.598 321.606C501.598 328.56 489.908 337.999 482.348 337.883C474.788 337.767 460.467 327.607 460.327 321.642C459.773 297.237 461.767 272.837 466.291 248.669C467.325 243.083 481.695 234.816 489.23 235.209C496.765 235.602 508.724 244.566 509.997 250.789C512.423 262.831 508.73 275.667 507.588 288.199L508.53 288.248Z" fill="#1E2C4F"/>
<path d="M548.249 288.248C547.23 299.436 548.78 311.273 544.316 321.606C541.317 328.56 529.627 337.999 522.067 337.883C514.507 337.767 500.186 327.607 500.045 321.642C499.491 297.237 501.485 272.837 506.009 248.669C507.044 243.083 521.414 234.816 528.949 235.209C536.484 235.602 548.443 244.566 549.716 250.789C552.142 262.831 548.449 275.667 547.307 288.199L548.249 288.248Z" fill="#1E2C4F"/>
<path d="M587.968 288.248C586.949 299.436 588.499 311.273 584.035 321.606C581.036 328.56 569.346 337.999 561.786 337.883C554.225 337.767 539.904 327.607 539.764 321.642C539.21 297.237 541.204 272.837 545.728 248.669C546.763 243.083 561.133 234.816 568.668 235.209C576.203 235.602 588.162 244.566 589.435 250.789C591.86 262.831 588.167 275.667 587.026 288.199L587.968 288.248Z" fill="#1E2C4F"/>
<path d="M627.69 288.248C626.671 299.436 628.222 311.273 623.758 321.606C620.759 328.56 609.068 337.999 601.508 337.883C593.948 337.767 579.627 327.607 579.487 321.642C578.933 297.237 580.927 272.837 585.451 248.669C586.485 243.083 600.855 234.816 608.39 235.209C615.925 235.602 627.884 244.566 629.157 250.789C631.583 262.831 627.89 275.667 626.749 288.199L627.69 288.248Z" fill="#1E2C4F"/>
<path d="M667.409 288.248C666.39 299.436 667.94 311.273 663.477 321.606C660.477 328.56 648.787 337.999 641.227 337.883C633.667 337.767 619.346 327.607 619.206 321.642C618.651 297.237 620.646 272.837 625.17 248.669C626.204 243.083 640.574 234.816 648.109 235.209C655.644 235.602 667.603 244.566 668.876 250.789C671.302 262.831 667.609 275.667 666.467 288.199L667.409 288.248Z" fill="#1E2C4F"/>
<path d="M707.128 288.248C706.109 299.436 707.659 311.273 703.195 321.606C700.196 328.56 688.506 337.999 680.946 337.883C673.386 337.767 659.064 327.607 658.924 321.642C658.37 297.237 660.364 272.837 664.888 248.669C665.923 243.083 680.293 234.816 687.828 235.209C695.363 235.602 707.322 244.566 708.595 250.789C711.02 262.831 707.328 275.667 706.186 288.199L707.128 288.248Z" fill="#1E2C4F"/>
<path d="M746.847 288.248C745.828 299.436 747.378 311.273 742.914 321.606C739.915 328.56 728.225 337.999 720.664 337.883C713.104 337.767 698.783 327.607 698.643 321.642C698.089 297.237 700.083 272.837 704.607 248.669C705.642 243.083 720.012 234.816 727.547 235.209C735.082 235.602 747.041 244.566 748.314 250.789C750.739 262.831 747.046 275.667 745.905 288.199L746.847 288.248Z" fill="#1E2C4F"/>
<path d="M786.565 288.248C785.546 299.436 787.097 311.273 782.633 321.606C779.634 328.56 767.943 337.999 760.383 337.883C752.823 337.767 738.502 327.607 738.362 321.642C737.808 297.237 739.802 272.837 744.326 248.669C745.36 243.083 759.73 234.816 767.265 235.209C774.8 235.602 786.759 244.566 788.032 250.789C790.458 262.831 786.765 275.667 785.624 288.199L786.565 288.248Z" fill="#1E2C4F"/>
<path d="M826.284 288.248C825.265 299.436 826.815 311.273 822.352 321.606C819.352 328.56 807.662 337.999 800.102 337.883C792.542 337.767 778.221 327.607 778.081 321.642C777.526 297.237 779.521 272.837 784.045 248.669C785.079 243.083 799.449 234.816 806.984 235.209C814.519 235.602 826.478 244.566 827.751 250.789C830.177 262.831 826.484 275.667 825.342 288.199L826.284 288.248Z" fill="#1E2C4F"/>
<path d="M866.003 288.248C864.984 299.436 866.534 311.273 862.07 321.606C859.071 328.56 847.381 337.999 839.821 337.883C832.261 337.767 817.939 327.607 817.799 321.642C817.245 297.237 819.239 272.837 823.763 248.669C824.798 243.083 839.168 234.816 846.703 235.209C854.238 235.602 866.197 244.566 867.47 250.789C869.895 262.831 866.203 275.667 865.061 288.199L866.003 288.248Z" fill="#1E2C4F"/>
<path d="M905.722 288.248C904.703 299.436 906.253 311.273 901.789 321.606C898.79 328.56 887.1 337.999 879.539 337.883C871.979 337.767 857.658 327.607 857.518 321.642C856.964 297.237 858.958 272.837 863.482 248.669C864.517 243.083 878.887 234.816 886.422 235.209C893.957 235.602 905.916 244.566 907.189 250.789C909.614 262.831 905.921 275.667 904.78 288.199L905.722 288.248Z" fill="#1E2C4F"/>
<path d="M945.44 288.248C944.421 299.436 945.972 311.273 941.508 321.606C938.509 328.56 926.818 337.999 919.258 337.883C911.698 337.767 897.377 327.607 897.237 321.642C896.683 297.237 898.677 272.837 903.201 248.669C904.235 243.083 918.605 234.816 926.14 235.209C933.675 235.602 945.634 244.566 946.907 250.789C949.333 262.831 945.64 275.667 944.499 288.199L945.44 288.248Z" fill="#1E2C4F"/>
<path d="M985.159 288.248C984.14 299.436 985.69 311.273 981.227 321.606C978.227 328.56 966.537 337.999 958.977 337.883C951.417 337.767 937.096 327.607 936.956 321.642C936.401 297.237 938.396 272.837 942.92 248.669C943.954 243.083 958.324 234.816 965.859 235.209C973.394 235.602 985.353 244.566 986.626 250.789C989.052 262.831 985.359 275.667 984.217 288.199L985.159 288.248Z" fill="#1E2C4F"/>
<path d="M1024.88 288.248C1023.86 299.436 1025.41 311.273 1020.95 321.606C1017.95 328.56 1006.26 337.999 998.696 337.883C991.136 337.767 976.814 327.607 976.674 321.642C976.12 297.237 978.114 272.837 982.638 248.669C983.673 243.083 998.043 234.816 1005.58 235.209C1013.11 235.602 1025.07 244.566 1026.34 250.789C1028.77 262.831 1025.08 275.667 1023.94 288.199L1024.88 288.248Z" fill="#1E2C4F"/>
<path d="M1064.6 288.248C1063.58 299.436 1065.13 311.273 1060.66 321.606C1057.66 328.56 1045.97 337.999 1038.41 337.883C1030.85 337.767 1016.53 327.607 1016.39 321.642C1015.84 297.237 1017.83 272.837 1022.36 248.669C1023.39 243.083 1037.76 234.816 1045.3 235.209C1052.83 235.602 1064.79 244.566 1066.06 250.789C1068.49 262.831 1064.8 275.667 1063.65 288.199L1064.6 288.248Z" fill="#1E2C4F"/>
<path d="M1104.32 288.248C1103.3 299.436 1104.85 311.273 1100.38 321.606C1097.38 328.56 1085.69 337.999 1078.13 337.883C1070.57 337.767 1056.25 327.607 1056.11 321.642C1055.56 297.237 1057.55 272.837 1062.08 248.669C1063.11 243.083 1077.48 234.816 1085.02 235.209C1092.55 235.602 1104.51 244.566 1105.78 250.789C1108.21 262.831 1104.52 275.667 1103.37 288.199L1104.32 288.248Z" fill="#1E2C4F"/>
<path d="M1144.04 288.248C1143.02 299.436 1144.57 311.273 1140.11 321.606C1137.11 328.56 1125.42 337.999 1117.86 337.883C1110.3 337.767 1095.97 327.607 1095.83 321.642C1095.28 297.237 1097.27 272.837 1101.8 248.669C1102.83 243.083 1117.2 234.816 1124.74 235.209C1132.27 235.602 1144.23 244.566 1145.51 250.789C1147.93 262.831 1144.24 275.667 1143.1 288.199L1144.04 288.248Z" fill="#1E2C4F"/>
<path d="M1183.76 288.248C1182.74 299.436 1184.29 311.273 1179.82 321.606C1176.83 328.56 1165.13 337.999 1157.57 337.883C1150.01 337.767 1135.69 327.607 1135.55 321.642C1135 297.237 1136.99 272.837 1141.52 248.669C1142.55 243.083 1156.92 234.816 1164.46 235.209C1171.99 235.602 1183.95 244.566 1185.22 250.789C1187.65 262.831 1183.96 275.667 1182.81 288.199L1183.76 288.248Z" fill="#1E2C4F"/>
<path d="M1223.48 288.248C1222.46 299.436 1224.01 311.273 1219.54 321.606C1216.54 328.56 1204.85 337.999 1197.29 337.883C1189.73 337.767 1175.41 327.607 1175.27 321.642C1174.72 297.237 1176.71 272.837 1181.24 248.669C1182.27 243.083 1196.64 234.816 1204.18 235.209C1211.71 235.602 1223.67 244.566 1224.94 250.789C1227.37 262.831 1223.68 275.667 1222.53 288.199L1223.48 288.248Z" fill="#1E2C4F"/>
<path d="M1263.19 288.248C1262.18 299.436 1263.73 311.273 1259.26 321.606C1256.26 328.56 1244.57 337.999 1237.01 337.883C1229.45 337.767 1215.13 327.607 1214.99 321.642C1214.44 297.237 1216.43 272.837 1220.95 248.669C1221.99 243.083 1236.36 234.816 1243.89 235.209C1251.43 235.602 1263.39 244.566 1264.66 250.789C1267.09 262.831 1263.39 275.667 1262.25 288.199L1263.19 288.248Z" fill="#1E2C4F"/>
<path d="M1302.91 288.248C1301.89 299.436 1303.44 311.273 1298.98 321.606C1295.98 328.56 1284.29 337.999 1276.73 337.883C1269.17 337.767 1254.85 327.607 1254.71 321.642C1254.16 297.237 1256.15 272.837 1260.67 248.669C1261.71 243.083 1276.08 234.816 1283.61 235.209C1291.15 235.602 1303.11 244.566 1304.38 250.789C1306.81 262.831 1303.11 275.667 1301.97 288.199L1302.91 288.248Z" fill="#1E2C4F"/>
<path d="M1342.63 288.248C1341.61 299.436 1343.16 311.273 1338.7 321.606C1335.7 328.56 1324.01 337.999 1316.45 337.883C1308.89 337.767 1294.56 327.607 1294.42 321.642C1293.87 297.237 1295.86 272.837 1300.39 248.669C1301.42 243.083 1315.79 234.816 1323.33 235.209C1330.86 235.602 1342.82 244.566 1344.09 250.789C1346.52 262.831 1342.83 275.667 1341.69 288.199L1342.63 288.248Z" fill="#1E2C4F"/>
<path d="M1382.35 288.248C1381.33 299.436 1382.88 311.273 1378.42 321.606C1375.42 328.56 1363.73 337.999 1356.17 337.883C1348.61 337.767 1334.29 327.607 1334.15 321.642C1333.59 297.237 1335.59 272.837 1340.11 248.669C1341.15 243.083 1355.52 234.816 1363.05 235.209C1370.59 235.602 1382.54 244.566 1383.82 250.789C1386.24 262.831 1382.55 275.667 1381.41 288.199L1382.35 288.248Z" fill="#1E2C4F"/>
<path d="M1422.07 288.248C1421.05 299.436 1422.6 311.273 1418.14 321.606C1415.14 328.56 1403.45 337.999 1395.89 337.883C1388.33 337.767 1374.01 327.607 1373.87 321.642C1373.31 297.237 1375.31 272.837 1379.83 248.669C1380.86 243.083 1395.23 234.816 1402.77 235.209C1410.3 235.602 1422.26 244.566 1423.54 250.789C1425.96 262.831 1422.27 275.667 1421.13 288.199L1422.07 288.248Z" fill="#1E2C4F"/>
<path d="M1461.79 288.248C1460.77 299.436 1462.32 311.273 1457.86 321.606C1454.86 328.56 1443.17 337.999 1435.61 337.883C1428.05 337.767 1413.72 327.607 1413.58 321.642C1413.03 297.237 1415.02 272.837 1419.55 248.669C1420.58 243.083 1434.95 234.816 1442.49 235.209C1450.02 235.602 1461.98 244.566 1463.26 250.789C1465.68 262.831 1461.99 275.667 1460.85 288.199L1461.79 288.248Z" fill="#1E2C4F"/>
</g>
<g filter="url(#filter1_d_2741_3404)">
<path d="M25.831 56.5584C24.8119 67.7461 26.3623 79.5838 21.8985 89.9166C18.8992 96.8702 7.20895 106.31 -0.351207 106.194C-7.91136 106.078 -22.2324 95.9176 -22.3725 89.9523C-22.9267 65.5472 -20.9325 41.1476 -16.4085 16.98C-15.3739 11.3937 -1.00401 3.12655 6.53094 3.51932C14.0659 3.91209 26.0249 12.8763 27.2981 19.0992C29.7236 31.1417 26.0307 43.9776 24.8892 56.5093L25.831 56.5584Z" fill="#1E2C4F"/>
<path d="M69.624 54.2479C68.6049 65.4355 70.1552 77.2732 65.6915 87.6061C62.6922 94.5596 51.0019 103.999 43.4418 103.883C35.8816 103.767 21.5606 93.607 21.4205 87.6417C20.8663 63.2366 22.8605 38.837 27.3844 14.6695C28.4191 9.08315 42.789 0.816 50.3239 1.20877C57.8589 1.60154 69.8179 10.5657 71.0911 16.7887C73.5166 28.8311 69.8237 41.6671 68.6821 54.1988L69.624 54.2479Z" fill="#1E2C4F"/>
<path d="M109.343 54.2479C108.324 65.4355 109.874 77.2732 105.41 87.6061C102.411 94.5596 90.7207 103.999 83.1605 103.883C75.6004 103.767 61.2793 93.607 61.1392 87.6417C60.5851 63.2366 62.5792 38.837 67.1032 14.6695C68.1378 9.08315 82.5077 0.816 90.0427 1.20877C97.5776 1.60154 109.537 10.5657 110.81 16.7887C113.235 28.8311 109.542 41.6671 108.401 54.1988L109.343 54.2479Z" fill="#1E2C4F"/>
<path d="M149.062 54.2479C148.042 65.4355 149.593 77.2732 145.129 87.6061C142.13 94.5596 130.439 103.999 122.879 103.883C115.319 103.767 100.998 93.607 100.858 87.6417C100.304 63.2366 102.298 38.837 106.822 14.6695C107.857 9.08315 122.226 0.816 129.761 1.20877C137.296 1.60154 149.255 10.5657 150.529 16.7887C152.954 28.8311 149.261 41.6671 148.12 54.1988L149.062 54.2479Z" fill="#1E2C4F"/>
<path d="M188.78 54.2479C187.761 65.4355 189.311 77.2732 184.848 87.6061C181.848 94.5596 170.158 103.999 162.598 103.883C155.038 103.767 140.717 93.607 140.577 87.6417C140.023 63.2366 142.017 38.837 146.541 14.6695C147.575 9.08315 161.945 0.816 169.48 1.20877C177.015 1.60154 188.974 10.5657 190.247 16.7887C192.673 28.8311 188.98 41.6671 187.838 54.1988L188.78 54.2479Z" fill="#1E2C4F"/>
<path d="M228.499 54.2479C227.48 65.4355 229.03 77.2732 224.566 87.6061C221.567 94.5596 209.877 103.999 202.317 103.883C194.757 103.767 180.436 93.607 180.295 87.6417C179.741 63.2366 181.735 38.837 186.259 14.6695C187.294 9.08315 201.664 0.816 209.199 1.20877C216.734 1.60154 228.693 10.5657 229.966 16.7887C232.392 28.8311 228.699 41.6671 227.557 54.1988L228.499 54.2479Z" fill="#1E2C4F"/>
<path d="M268.218 54.2479C267.199 65.4355 268.749 77.2732 264.285 87.6061C261.286 94.5596 249.596 103.999 242.036 103.883C234.475 103.767 220.154 93.607 220.014 87.6417C219.46 63.2366 221.454 38.837 225.978 14.6695C227.013 9.08315 241.383 0.816 248.918 1.20877C256.453 1.60154 268.412 10.5657 269.685 16.7887C272.11 28.8311 268.417 41.6671 267.276 54.1988L268.218 54.2479Z" fill="#1E2C4F"/>
<path d="M307.937 54.2479C306.917 65.4355 308.468 77.2732 304.004 87.6061C301.005 94.5596 289.314 103.999 281.754 103.883C274.194 103.767 259.873 93.607 259.733 87.6417C259.179 63.2366 261.173 38.837 265.697 14.6695C266.732 9.08315 281.101 0.816 288.636 1.20877C296.171 1.60154 308.13 10.5657 309.404 16.7887C311.829 28.8311 308.136 41.6671 306.995 54.1988L307.937 54.2479Z" fill="#1E2C4F"/>
<path d="M347.655 54.2479C346.636 65.4355 348.186 77.2732 343.723 87.6061C340.723 94.5596 329.033 103.999 321.473 103.883C313.913 103.767 299.592 93.607 299.452 87.6417C298.898 63.2366 300.892 38.837 305.416 14.6695C306.45 9.08315 320.82 0.816 328.355 1.20877C335.89 1.60154 347.849 10.5657 349.122 16.7887C351.548 28.8311 347.855 41.6671 346.713 54.1988L347.655 54.2479Z" fill="#1E2C4F"/>
<path d="M387.374 54.2479C386.355 65.4355 387.905 77.2732 383.441 87.6061C380.442 94.5596 368.752 103.999 361.192 103.883C353.632 103.767 339.311 93.607 339.17 87.6417C338.616 63.2366 340.61 38.837 345.134 14.6695C346.169 9.08315 360.539 0.816 368.074 1.20877C375.609 1.60154 387.568 10.5657 388.841 16.7887C391.267 28.8311 387.574 41.6671 386.432 54.1988L387.374 54.2479Z" fill="#1E2C4F"/>
<path d="M427.093 54.2479C426.074 65.4355 427.624 77.2732 423.16 87.6061C420.161 94.5596 408.471 103.999 400.911 103.883C393.35 103.767 379.029 93.607 378.889 87.6417C378.335 63.2366 380.329 38.837 384.853 14.6695C385.888 9.08315 400.258 0.816 407.793 1.20877C415.328 1.60154 427.287 10.5657 428.56 16.7887C430.985 28.8311 427.292 41.6671 426.151 54.1988L427.093 54.2479Z" fill="#1E2C4F"/>
<path d="M466.812 54.2479C465.792 65.4355 467.343 77.2732 462.879 87.6061C459.88 94.5596 448.189 103.999 440.629 103.883C433.069 103.767 418.748 93.607 418.608 87.6417C418.054 63.2366 420.048 38.837 424.572 14.6695C425.607 9.08315 439.976 0.816 447.511 1.20877C455.046 1.60154 467.005 10.5657 468.279 16.7887C470.704 28.8311 467.011 41.6671 465.87 54.1988L466.812 54.2479Z" fill="#1E2C4F"/>
<path d="M506.53 54.2479C505.511 65.4355 507.061 77.2732 502.598 87.6061C499.598 94.5596 487.908 103.999 480.348 103.883C472.788 103.767 458.467 93.607 458.327 87.6417C457.773 63.2366 459.767 38.837 464.291 14.6695C465.325 9.08315 479.695 0.816 487.23 1.20877C494.765 1.60154 506.724 10.5657 507.997 16.7887C510.423 28.8311 506.73 41.6671 505.588 54.1988L506.53 54.2479Z" fill="#1E2C4F"/>
<path d="M546.249 54.2479C545.23 65.4355 546.78 77.2732 542.316 87.6061C539.317 94.5596 527.627 103.999 520.067 103.883C512.507 103.767 498.186 93.607 498.045 87.6417C497.491 63.2366 499.485 38.837 504.009 14.6695C505.044 9.08315 519.414 0.816 526.949 1.20877C534.484 1.60154 546.443 10.5657 547.716 16.7887C550.142 28.8311 546.449 41.6671 545.307 54.1988L546.249 54.2479Z" fill="#1E2C4F"/>
<path d="M585.968 54.2479C584.949 65.4355 586.499 77.2732 582.035 87.6061C579.036 94.5596 567.346 103.999 559.786 103.883C552.225 103.767 537.904 93.607 537.764 87.6417C537.21 63.2366 539.204 38.837 543.728 14.6695C544.763 9.08315 559.133 0.816 566.668 1.20877C574.203 1.60154 586.162 10.5657 587.435 16.7887C589.86 28.8311 586.167 41.6671 585.026 54.1988L585.968 54.2479Z" fill="#1E2C4F"/>
<path d="M625.69 54.2479C624.671 65.4355 626.222 77.2732 621.758 87.6061C618.759 94.5596 607.068 103.999 599.508 103.883C591.948 103.767 577.627 93.607 577.487 87.6417C576.933 63.2366 578.927 38.837 583.451 14.6695C584.485 9.08315 598.855 0.816 606.39 1.20877C613.925 1.60154 625.884 10.5657 627.157 16.7887C629.583 28.8311 625.89 41.6671 624.749 54.1988L625.69 54.2479Z" fill="#1E2C4F"/>
<path d="M665.409 54.2479C664.39 65.4355 665.94 77.2732 661.477 87.6061C658.477 94.5596 646.787 103.999 639.227 103.883C631.667 103.767 617.346 93.607 617.206 87.6417C616.651 63.2366 618.646 38.837 623.17 14.6695C624.204 9.08315 638.574 0.816 646.109 1.20877C653.644 1.60154 665.603 10.5657 666.876 16.7887C669.302 28.8311 665.609 41.6671 664.467 54.1988L665.409 54.2479Z" fill="#1E2C4F"/>
<path d="M705.128 54.2479C704.109 65.4355 705.659 77.2732 701.195 87.6061C698.196 94.5596 686.506 103.999 678.946 103.883C671.386 103.767 657.064 93.607 656.924 87.6417C656.37 63.2366 658.364 38.837 662.888 14.6695C663.923 9.08315 678.293 0.816 685.828 1.20877C693.363 1.60154 705.322 10.5657 706.595 16.7887C709.02 28.8311 705.328 41.6671 704.186 54.1988L705.128 54.2479Z" fill="#1E2C4F"/>
<path d="M744.847 54.2479C743.828 65.4355 745.378 77.2732 740.914 87.6061C737.915 94.5596 726.225 103.999 718.664 103.883C711.104 103.767 696.783 93.607 696.643 87.6417C696.089 63.2366 698.083 38.837 702.607 14.6695C703.642 9.08315 718.012 0.816 725.547 1.20877C733.082 1.60154 745.041 10.5657 746.314 16.7887C748.739 28.8311 745.046 41.6671 743.905 54.1988L744.847 54.2479Z" fill="#1E2C4F"/>
<path d="M784.565 54.2479C783.546 65.4355 785.097 77.2732 780.633 87.6061C777.634 94.5596 765.943 103.999 758.383 103.883C750.823 103.767 736.502 93.607 736.362 87.6417C735.808 63.2366 737.802 38.837 742.326 14.6695C743.36 9.08315 757.73 0.816 765.265 1.20877C772.8 1.60154 784.759 10.5657 786.032 16.7887C788.458 28.8311 784.765 41.6671 783.624 54.1988L784.565 54.2479Z" fill="#1E2C4F"/>
<path d="M824.284 54.2479C823.265 65.4355 824.815 77.2732 820.352 87.6061C817.352 94.5596 805.662 103.999 798.102 103.883C790.542 103.767 776.221 93.607 776.081 87.6417C775.526 63.2366 777.521 38.837 782.045 14.6695C783.079 9.08315 797.449 0.816 804.984 1.20877C812.519 1.60154 824.478 10.5657 825.751 16.7887C828.177 28.8311 824.484 41.6671 823.342 54.1988L824.284 54.2479Z" fill="#1E2C4F"/>
<path d="M864.003 54.2479C862.984 65.4355 864.534 77.2732 860.07 87.6061C857.071 94.5596 845.381 103.999 837.821 103.883C830.261 103.767 815.939 93.607 815.799 87.6417C815.245 63.2366 817.239 38.837 821.763 14.6695C822.798 9.08315 837.168 0.816 844.703 1.20877C852.238 1.60154 864.197 10.5657 865.47 16.7887C867.895 28.8311 864.203 41.6671 863.061 54.1988L864.003 54.2479Z" fill="#1E2C4F"/>
<path d="M903.722 54.2479C902.703 65.4355 904.253 77.2732 899.789 87.6061C896.79 94.5596 885.1 103.999 877.539 103.883C869.979 103.767 855.658 93.607 855.518 87.6417C854.964 63.2366 856.958 38.837 861.482 14.6695C862.517 9.08315 876.887 0.816 884.422 1.20877C891.957 1.60154 903.916 10.5657 905.189 16.7887C907.614 28.8311 903.921 41.6671 902.78 54.1988L903.722 54.2479Z" fill="#1E2C4F"/>
<path d="M943.44 54.2479C942.421 65.4355 943.972 77.2732 939.508 87.6061C936.509 94.5596 924.818 103.999 917.258 103.883C909.698 103.767 895.377 93.607 895.237 87.6417C894.683 63.2366 896.677 38.837 901.201 14.6695C902.235 9.08315 916.605 0.816 924.14 1.20877C931.675 1.60154 943.634 10.5657 944.907 16.7887C947.333 28.8311 943.64 41.6671 942.499 54.1988L943.44 54.2479Z" fill="#1E2C4F"/>
<path d="M983.159 54.2479C982.14 65.4355 983.69 77.2732 979.227 87.6061C976.227 94.5596 964.537 103.999 956.977 103.883C949.417 103.767 935.096 93.607 934.956 87.6417C934.401 63.2366 936.396 38.837 940.92 14.6695C941.954 9.08315 956.324 0.816 963.859 1.20877C971.394 1.60154 983.353 10.5657 984.626 16.7887C987.052 28.8311 983.359 41.6671 982.217 54.1988L983.159 54.2479Z" fill="#1E2C4F"/>
<path d="M1022.88 54.2479C1021.86 65.4355 1023.41 77.2732 1018.95 87.6061C1015.95 94.5596 1004.26 103.999 996.696 103.883C989.136 103.767 974.814 93.607 974.674 87.6417C974.12 63.2366 976.114 38.837 980.638 14.6695C981.673 9.08315 996.043 0.816 1003.58 1.20877C1011.11 1.60154 1023.07 10.5657 1024.34 16.7887C1026.77 28.8311 1023.08 41.6671 1021.94 54.1988L1022.88 54.2479Z" fill="#1E2C4F"/>
<path d="M1062.6 54.2479C1061.58 65.4355 1063.13 77.2732 1058.66 87.6061C1055.66 94.5596 1043.97 103.999 1036.41 103.883C1028.85 103.767 1014.53 93.607 1014.39 87.6417C1013.84 63.2366 1015.83 38.837 1020.36 14.6695C1021.39 9.08315 1035.76 0.816 1043.3 1.20877C1050.83 1.60154 1062.79 10.5657 1064.06 16.7887C1066.49 28.8311 1062.8 41.6671 1061.65 54.1988L1062.6 54.2479Z" fill="#1E2C4F"/>
<path d="M1102.32 54.2479C1101.3 65.4355 1102.85 77.2732 1098.38 87.6061C1095.38 94.5596 1083.69 103.999 1076.13 103.883C1068.57 103.767 1054.25 93.607 1054.11 87.6417C1053.56 63.2366 1055.55 38.837 1060.08 14.6695C1061.11 9.08315 1075.48 0.816 1083.02 1.20877C1090.55 1.60154 1102.51 10.5657 1103.78 16.7887C1106.21 28.8311 1102.52 41.6671 1101.37 54.1988L1102.32 54.2479Z" fill="#1E2C4F"/>
<path d="M1142.04 54.2479C1141.02 65.4355 1142.57 77.2732 1138.11 87.6061C1135.11 94.5596 1123.42 103.999 1115.86 103.883C1108.3 103.767 1093.97 93.607 1093.83 87.6417C1093.28 63.2366 1095.27 38.837 1099.8 14.6695C1100.83 9.08315 1115.2 0.816 1122.74 1.20877C1130.27 1.60154 1142.23 10.5657 1143.51 16.7887C1145.93 28.8311 1142.24 41.6671 1141.1 54.1988L1142.04 54.2479Z" fill="#1E2C4F"/>
<path d="M1181.76 54.2479C1180.74 65.4355 1182.29 77.2732 1177.82 87.6061C1174.83 94.5596 1163.13 103.999 1155.57 103.883C1148.01 103.767 1133.69 93.607 1133.55 87.6417C1133 63.2366 1134.99 38.837 1139.52 14.6695C1140.55 9.08315 1154.92 0.816 1162.46 1.20877C1169.99 1.60154 1181.95 10.5657 1183.22 16.7887C1185.65 28.8311 1181.96 41.6671 1180.81 54.1988L1181.76 54.2479Z" fill="#1E2C4F"/>
<path d="M1221.48 54.2479C1220.46 65.4355 1222.01 77.2732 1217.54 87.6061C1214.54 94.5596 1202.85 103.999 1195.29 103.883C1187.73 103.767 1173.41 93.607 1173.27 87.6417C1172.72 63.2366 1174.71 38.837 1179.24 14.6695C1180.27 9.08315 1194.64 0.816 1202.18 1.20877C1209.71 1.60154 1221.67 10.5657 1222.94 16.7887C1225.37 28.8311 1221.68 41.6671 1220.53 54.1988L1221.48 54.2479Z" fill="#1E2C4F"/>
<path d="M1261.19 54.2479C1260.18 65.4355 1261.73 77.2732 1257.26 87.6061C1254.26 94.5596 1242.57 103.999 1235.01 103.883C1227.45 103.767 1213.13 93.607 1212.99 87.6417C1212.44 63.2366 1214.43 38.837 1218.95 14.6695C1219.99 9.08315 1234.36 0.816 1241.89 1.20877C1249.43 1.60154 1261.39 10.5657 1262.66 16.7887C1265.09 28.8311 1261.39 41.6671 1260.25 54.1988L1261.19 54.2479Z" fill="#1E2C4F"/>
<path d="M1300.91 54.2479C1299.89 65.4355 1301.44 77.2732 1296.98 87.6061C1293.98 94.5596 1282.29 103.999 1274.73 103.883C1267.17 103.767 1252.85 93.607 1252.71 87.6417C1252.16 63.2366 1254.15 38.837 1258.67 14.6695C1259.71 9.08315 1274.08 0.816 1281.61 1.20877C1289.15 1.60154 1301.11 10.5657 1302.38 16.7887C1304.81 28.8311 1301.11 41.6671 1299.97 54.1988L1300.91 54.2479Z" fill="#1E2C4F"/>
<path d="M1340.63 54.2479C1339.61 65.4355 1341.16 77.2732 1336.7 87.6061C1333.7 94.5596 1322.01 103.999 1314.45 103.883C1306.89 103.767 1292.56 93.607 1292.42 87.6417C1291.87 63.2366 1293.86 38.837 1298.39 14.6695C1299.42 9.08315 1313.79 0.816 1321.33 1.20877C1328.86 1.60154 1340.82 10.5657 1342.09 16.7887C1344.52 28.8311 1340.83 41.6671 1339.69 54.1988L1340.63 54.2479Z" fill="#1E2C4F"/>
<path d="M1380.35 54.2479C1379.33 65.4355 1380.88 77.2732 1376.42 87.6061C1373.42 94.5596 1361.73 103.999 1354.17 103.883C1346.61 103.767 1332.29 93.607 1332.15 87.6417C1331.59 63.2366 1333.59 38.837 1338.11 14.6695C1339.15 9.08315 1353.52 0.816 1361.05 1.20877C1368.59 1.60154 1380.54 10.5657 1381.82 16.7887C1384.24 28.8311 1380.55 41.6671 1379.41 54.1988L1380.35 54.2479Z" fill="#1E2C4F"/>
<path d="M1420.07 54.2479C1419.05 65.4355 1420.6 77.2732 1416.14 87.6061C1413.14 94.5596 1401.45 103.999 1393.89 103.883C1386.33 103.767 1372.01 93.607 1371.87 87.6417C1371.31 63.2366 1373.31 38.837 1377.83 14.6695C1378.86 9.08315 1393.23 0.816 1400.77 1.20877C1408.3 1.60154 1420.26 10.5657 1421.54 16.7887C1423.96 28.8311 1420.27 41.6671 1419.13 54.1988L1420.07 54.2479Z" fill="#1E2C4F"/>
<path d="M1459.79 54.2479C1458.77 65.4355 1460.32 77.2732 1455.86 87.6061C1452.86 94.5596 1441.17 103.999 1433.61 103.883C1426.05 103.767 1411.72 93.607 1411.58 87.6417C1411.03 63.2366 1413.02 38.837 1417.55 14.6695C1418.58 9.08315 1432.95 0.816 1440.49 1.20877C1448.02 1.60154 1459.98 10.5657 1461.26 16.7887C1463.68 28.8311 1459.99 41.6671 1458.85 54.1988L1459.79 54.2479Z" fill="#1E2C4F"/>
</g>
<rect width="1441" height="260" transform="translate(0 24)" fill="#1E2C4F"/>
<defs>
<filter id="filter0_d_2741_3404" x="-24.4629" y="235.195" width="1492.53" height="113" filterUnits="userSpaceOnUse" color-interpolation-filters="sRGB">
<feFlood flood-opacity="0" result="BackgroundImageFix"/>
<feColorMatrix in="SourceAlpha" type="matrix" values="0 0 0 0 0 0 0 0 0 0 0 0 0 0 0 0 0 0 127 0" result="hardAlpha"/>
<feOffset dy="4"/>
<feGaussianBlur stdDeviation="2"/>
<feComposite in2="hardAlpha" operator="out"/>
<feColorMatrix type="matrix" values="0 0 0 0 0 0 0 0 0 0 0 0 0 0 0 0 0 0 0.1 0"/>
<feBlend mode="normal" in2="BackgroundImageFix" result="effect1_dropShadow_2741_3404"/>
<feBlend mode="normal" in="SourceGraphic" in2="effect1_dropShadow_2741_3404" result="shape"/>
</filter>
<filter id="filter1_d_2741_3404" x="-26.4629" y="1.19525" width="1492.53" height="113" filterUnits="userSpaceOnUse" color-interpolation-filters="sRGB">
<feFlood flood-opacity="0" result="BackgroundImageFix"/>
<feColorMatrix in="SourceAlpha" type="matrix" values="0 0 0 0 0 0 0 0 0 0 0 0 0 0 0 0 0 0 127 0" result="hardAlpha"/>
<feOffset dy="4"/>
<feGaussianBlur stdDeviation="2"/>
<feComposite in2="hardAlpha" operator="out"/>
<feColorMatrix type="matrix" values="0 0 0 0 0 0 0 0 0 0 0 0 0 0 0 0 0 0 0.1 0"/>
<feBlend mode="normal" in2="BackgroundImageFix" result="effect1_dropShadow_2741_3404"/>
<feBlend mode="normal" in="SourceGraphic" in2="effect1_dropShadow_2741_3404" result="shape"/>
</filter>
</defs>
</svg>
