<svg width="28" height="29" viewBox="0 0 28 29" fill="none" xmlns="http://www.w3.org/2000/svg">
<path d="M21 10.3333C21 8.47674 20.2625 6.69626 18.9497 5.3835C17.637 4.07075 15.8565 3.33325 14 3.33325C12.1435 3.33325 10.363 4.07075 9.05025 5.3835C7.7375 6.69626 7 8.47674 7 10.3333C7 18.4999 3.5 20.8333 3.5 20.8333H24.5C24.5 20.8333 21 18.4999 21 10.3333Z" stroke="#7C87AC" stroke-width="2" stroke-linecap="round" stroke-linejoin="round"/>
<path d="M16.0181 25.5C15.813 25.8536 15.5186 26.1471 15.1644 26.3511C14.8102 26.5551 14.4086 26.6625 13.9998 26.6625C13.591 26.6625 13.1894 26.5551 12.8352 26.3511C12.481 26.1471 12.1866 25.8536 11.9814 25.5" stroke="#7C87AC" stroke-width="2" stroke-linecap="round" stroke-linejoin="round"/>
<circle cx="19" cy="4" r="4" fill="#F87171"/>
</svg>
