<svg width="88" height="87" viewBox="0 0 88 87" fill="none" xmlns="http://www.w3.org/2000/svg">
<g filter="url(#filter0_d_1468_9178)">
<circle cx="44" cy="40" r="40" fill="white"/>
</g>
<path d="M48.3891 55V49.6781H28.4828V44.5187C29.6068 43.2594 30.7307 42.0068 31.8547 40.7609C32.9786 39.5016 34.0958 38.2422 35.2063 36.9828C36.3302 35.7234 37.4542 34.4708 38.5781 33.225C39.7021 31.9656 40.826 30.713 41.95 29.4672C43.074 28.2078 44.1911 26.9484 45.3016 25.6891H54.7672V44.7219H59.5406V49.6781H54.7672V55H48.3891ZM35.0438 44.8844H48.5313V30.0969H48.3688C47.475 31.0719 46.5813 32.0469 45.6875 33.0219C44.8073 33.9969 43.9203 34.9786 43.0266 35.9672C42.1464 36.9422 41.2594 37.9172 40.3656 38.8922C39.4854 39.8672 38.5984 40.849 37.7047 41.8375C36.8245 42.8125 35.9375 43.7875 35.0438 44.7625V44.8844Z" fill="#778BF2"/>
<defs>
<filter id="filter0_d_1468_9178" x="0.8" y="0" width="86.4" height="86.4" filterUnits="userSpaceOnUse" color-interpolation-filters="sRGB">
<feFlood flood-opacity="0" result="BackgroundImageFix"/>
<feColorMatrix in="SourceAlpha" type="matrix" values="0 0 0 0 0 0 0 0 0 0 0 0 0 0 0 0 0 0 127 0" result="hardAlpha"/>
<feOffset dy="3.2"/>
<feGaussianBlur stdDeviation="1.6"/>
<feComposite in2="hardAlpha" operator="out"/>
<feColorMatrix type="matrix" values="0 0 0 0 0 0 0 0 0 0 0 0 0 0 0 0 0 0 0.1 0"/>
<feBlend mode="normal" in2="BackgroundImageFix" result="effect1_dropShadow_1468_9178"/>
<feBlend mode="normal" in="SourceGraphic" in2="effect1_dropShadow_1468_9178" result="shape"/>
</filter>
</defs>
</svg>
