<svg width="88" height="87" viewBox="0 0 88 87" fill="none" xmlns="http://www.w3.org/2000/svg">
<g filter="url(#filter0_d_1468_9186)">
<circle cx="44" cy="40" r="40" fill="white"/>
</g>
<path d="M43.8391 55.5891C40.7786 55.5891 38.1448 55.2438 35.9375 54.5531C33.7302 53.849 32.0036 52.8333 30.7578 51.5062C29.512 50.1792 28.8078 48.5609 28.6453 46.6516L28.625 46.3469H35.0438L35.0844 46.5297C35.2198 47.4234 35.6396 48.1818 36.3438 48.8047C37.0479 49.4141 38.0161 49.8812 39.2484 50.2062C40.4807 50.5312 41.9771 50.6937 43.7375 50.6937C45.4573 50.6937 46.913 50.5245 48.1047 50.1859C49.3099 49.8339 50.224 49.3328 50.8469 48.6828C51.4698 48.0328 51.7813 47.2542 51.7813 46.3469V46.3062C51.7813 44.8979 51.1719 43.8484 49.9531 43.1578C48.7344 42.4672 46.8927 42.1219 44.4281 42.1219H37.0141V37.8156H44.2656C45.7417 37.8156 46.9807 37.6599 47.9828 37.3484C48.9984 37.037 49.7635 36.5901 50.2781 36.0078C50.8063 35.4255 51.0703 34.7146 51.0703 33.875V33.8344C51.0703 32.9812 50.7927 32.2635 50.2375 31.6812C49.6958 31.099 48.8698 30.6656 47.7594 30.3812C46.6625 30.0833 45.2813 29.9344 43.6156 29.9344C41.9229 29.9344 40.4943 30.0901 39.3297 30.4016C38.1651 30.713 37.2646 31.187 36.6281 31.8234C35.9917 32.4464 35.6125 33.2182 35.4906 34.1391L35.4703 34.3219H29.2953L29.3156 33.9969C29.4781 32.1281 30.1484 30.537 31.3266 29.2234C32.5182 27.8964 34.1635 26.8807 36.2625 26.1766C38.3615 25.4589 40.8599 25.1 43.7578 25.1C46.6964 25.1 49.1813 25.4182 51.2125 26.0547C53.2438 26.6776 54.7807 27.5849 55.8234 28.7766C56.8797 29.9682 57.4078 31.4172 57.4078 33.1234V33.1641C57.4078 34.3016 57.137 35.3172 56.5953 36.2109C56.0536 37.1047 55.2818 37.8495 54.2797 38.4453C53.2911 39.0276 52.1333 39.4406 50.8063 39.6844V39.7859C53.1625 39.9891 55.038 40.7 56.4328 41.9187C57.8276 43.1375 58.525 44.7083 58.525 46.6312V46.6719C58.525 48.5135 57.9359 50.1047 56.7578 51.4453C55.5932 52.7724 53.9141 53.7948 51.7203 54.5125C49.5401 55.2302 46.913 55.5891 43.8391 55.5891Z" fill="#778BF2"/>
<defs>
<filter id="filter0_d_1468_9186" x="0.8" y="0" width="86.4" height="86.4" filterUnits="userSpaceOnUse" color-interpolation-filters="sRGB">
<feFlood flood-opacity="0" result="BackgroundImageFix"/>
<feColorMatrix in="SourceAlpha" type="matrix" values="0 0 0 0 0 0 0 0 0 0 0 0 0 0 0 0 0 0 127 0" result="hardAlpha"/>
<feOffset dy="3.2"/>
<feGaussianBlur stdDeviation="1.6"/>
<feComposite in2="hardAlpha" operator="out"/>
<feColorMatrix type="matrix" values="0 0 0 0 0 0 0 0 0 0 0 0 0 0 0 0 0 0 0.1 0"/>
<feBlend mode="normal" in2="BackgroundImageFix" result="effect1_dropShadow_1468_9186"/>
<feBlend mode="normal" in="SourceGraphic" in2="effect1_dropShadow_1468_9186" result="shape"/>
</filter>
</defs>
</svg>
