<svg width="146" height="149" viewBox="0 0 146 149" fill="none" xmlns="http://www.w3.org/2000/svg">
<path d="M97.1273 86.8985C96.381 88.8427 95.6809 90.8094 94.8832 92.7331C90.8551 102.454 85.1162 111.071 78.1014 118.86C77.7017 119.294 77.0689 119.741 77.5421 120.403C78.0559 121.13 78.6964 120.623 79.2207 120.299C89.3131 114.187 98.5797 106.776 106.784 98.2547C113.84 90.8779 120.155 82.8155 125.633 74.1875C130.67 66.3333 134.971 58.027 138.478 49.3776C139.093 47.8732 139.609 46.33 140.022 44.7583C139.488 45.1371 138.949 45.5076 138.422 45.8938C124.772 55.9174 110.258 64.6779 95.0592 72.0675C83.1449 77.814 70.8688 82.7511 58.3134 86.8455C52.0298 88.9115 45.8206 91.2108 39.547 93.3108C28.8411 96.8955 17.9879 99.8918 6.81998 101.563C6.7264 101.577 6.62996 101.583 6.53579 101.603C5.84378 101.754 5.07205 101.863 5.06451 102.807C5.05631 103.796 5.79107 103.997 6.57037 104.022C9.65652 104.116 12.7302 104.238 15.8126 104.264C19.9775 104.3 24.155 104.467 28.3061 104.188C32.8956 103.889 37.4785 103.165 42.0505 102.565C52.2708 101.209 62.3876 99.2871 72.294 96.3337C80.5727 93.8616 88.6771 90.8906 96.386 86.9011C96.5553 86.8253 96.7292 86.761 96.9067 86.7084L97.1273 86.8985Z" fill="#032BF2" fill-opacity="0.2"/>
<path d="M62.8633 83.75C85.3976 75.7985 105.901 64.0392 125.374 49.7784C124.331 49.439 123.49 49.1319 122.637 48.891C112.748 46.0859 102.742 43.8875 92.4466 43.1576C87.0809 42.7767 81.7137 42.735 76.3868 43.7705C75.4813 43.9557 74.5888 44.2026 73.7154 44.5096C73.4321 44.6085 73.0028 44.9912 73.0344 45.1655C73.0864 45.3346 73.1725 45.4907 73.2874 45.6241C73.4022 45.7575 73.5433 45.8653 73.7018 45.9409C80.9213 49.2495 87.1196 53.9527 92.5518 59.7365C93.1812 60.4043 93.1622 60.7738 92.5294 61.4384C84.1732 70.2081 74.646 77.3769 64.0362 83.104C63.6384 83.3065 63.2518 83.5308 62.8633 83.75Z" fill="#032BF2" fill-opacity="0.2"/>
</svg>
