<svg width="81" height="75" viewBox="0 0 81 75" fill="none" xmlns="http://www.w3.org/2000/svg">
<path d="M40.7229 17.917C42.1921 17.7742 43.6609 17.5949 45.1334 17.4912C52.5735 16.965 59.8554 17.8735 67.0164 19.8534C67.4181 19.9694 67.9021 20.2289 68.1722 19.719C68.4701 19.163 67.9457 18.9176 67.5741 18.6878C60.5014 14.2251 52.8662 10.6978 44.8636 8.19599C37.9504 6.05914 30.8376 4.61006 23.6312 3.87033C17.0552 3.16513 10.426 3.07039 3.83055 3.58735C2.68164 3.67368 1.53975 3.83563 0.412483 4.07212C0.82188 4.29062 1.22744 4.51472 1.63925 4.72634C12.3198 10.2053 22.4733 16.6321 31.9745 23.9276C39.3932 29.6611 46.4134 35.8805 52.9877 42.5438C56.2886 45.8733 59.7139 49.0818 63.0332 52.3941C68.6983 58.0464 74.037 63.9785 78.6354 70.53C78.6737 70.585 78.7081 70.6442 78.7504 70.6977C79.0654 71.0886 79.3793 71.5433 79.9805 71.2489C80.6097 70.9409 80.5046 70.4112 80.2734 69.9092C79.355 67.9227 78.4585 65.9351 77.4988 63.9723C76.2015 61.3204 74.984 58.6186 73.4919 56.0749C71.8481 53.2596 69.937 50.5832 68.1079 47.8744C64.0093 41.8242 59.5854 36.0184 54.5738 30.673C50.3833 26.2073 45.9316 22.01 40.9594 18.3862C40.8578 18.3029 40.7618 18.213 40.6723 18.1171L40.7229 17.917Z" fill="#032BF2" fill-opacity="0.2"/>
<path d="M49.5826 40.6395C37.4008 28.8711 23.4482 19.5969 8.23604 11.7687C8.35133 12.5375 8.42291 13.1677 8.54047 13.7848C9.8953 20.9439 11.6721 27.9852 14.4713 34.7441C15.93 38.2669 17.6041 41.6832 19.9486 44.7326C20.3529 45.2481 20.7922 45.7358 21.2636 46.1922C21.4161 46.3406 21.7948 46.4915 21.8953 46.4162C21.986 46.3297 22.0577 46.2256 22.1059 46.1105C22.1541 45.9954 22.1778 45.8718 22.1755 45.7474C21.9857 40.1215 23.0038 34.7012 24.9499 29.4242C25.1739 28.8136 25.4141 28.7086 26.036 28.8992C34.2442 31.4188 41.8083 35.188 48.8014 40.1005C49.0558 40.2886 49.3205 40.4626 49.5826 40.6395Z" fill="#032BF2" fill-opacity="0.2"/>
</svg>
