<svg width="143" height="146" viewBox="0 0 143 146" fill="none" xmlns="http://www.w3.org/2000/svg">
<path d="M46.4211 62.0386C47.0468 60.0523 47.6249 58.0463 48.3032 56.0774C51.7274 46.1274 56.927 37.1747 63.4509 28.9706C63.8232 28.5131 64.4274 28.028 63.9144 27.3959C63.3571 26.7021 62.7489 27.2475 62.2454 27.6031C52.5469 34.3219 43.7523 42.2873 36.0862 51.2961C29.4954 59.0918 23.6873 67.5263 18.7485 76.4741C14.2025 84.6225 10.4197 93.1769 7.44979 102.025C6.9276 103.564 6.50746 105.136 6.19216 106.73C6.70186 106.32 7.21671 105.917 7.7188 105.499C20.7286 94.657 34.678 85.0227 49.395 76.7149C60.9344 70.2484 72.8846 64.5676 85.1652 59.7108C91.3102 57.2633 97.3667 54.5874 103.5 52.1066C113.966 47.8721 124.615 44.2157 135.659 41.8624C135.752 41.8431 135.847 41.8311 135.94 41.8057C136.622 41.6126 137.385 41.4561 137.335 40.513C137.282 39.526 136.537 39.37 135.757 39.3931C132.671 39.4888 129.596 39.5554 126.518 39.7178C122.358 39.9381 118.179 40.0272 114.052 40.5602C109.49 41.14 104.96 42.1437 100.433 43.023C90.3155 45.004 80.3356 47.5425 70.6289 51.098C62.5175 54.0732 54.6106 57.5357 47.1609 61.9906C46.9966 62.0765 46.8269 62.1514 46.653 62.2148L46.4211 62.0386Z" fill="#032BF2" fill-opacity="0.2"/>
<path d="M80.8136 63.0794C58.8094 72.3981 39.0659 85.3929 20.5044 100.821C21.5663 101.096 22.4239 101.351 23.2901 101.539C33.3327 103.732 43.4552 105.313 53.7757 105.41C59.1547 105.461 64.5143 105.173 69.7677 103.813C70.6602 103.573 71.5359 103.272 72.3887 102.912C72.6655 102.796 73.0705 102.387 73.0283 102.215C72.966 102.05 72.8704 101.899 72.7476 101.773C72.6248 101.647 72.4774 101.548 72.3146 101.482C64.9057 98.6226 58.4306 94.3084 52.6538 88.8687C51.9848 88.2407 51.981 87.8708 52.5718 87.1686C60.3745 77.9029 69.444 70.1632 79.6825 63.7961C80.0672 63.5696 80.4393 63.3221 80.8136 63.0794Z" fill="#032BF2" fill-opacity="0.2"/>
</svg>
