<svg width="221" height="220" viewBox="0 0 221 220" fill="none" xmlns="http://www.w3.org/2000/svg">
<circle cx="110.499" cy="109.565" r="109.565" fill="#23A26D" fill-opacity="0.12"/>
<path d="M108.539 57.3914C79.7914 57.3914 56.3652 80.8175 56.3652 109.565C56.3652 138.313 79.7914 161.739 108.539 161.739C137.287 161.739 160.713 138.313 160.713 109.565C160.713 80.8175 137.287 57.3914 108.539 57.3914ZM133.478 97.5653L103.896 127.148C103.165 127.878 102.174 128.296 101.131 128.296C100.087 128.296 99.0957 127.878 98.3653 127.148L83.6001 112.383C82.087 110.87 82.087 108.365 83.6001 106.852C85.1131 105.339 87.6175 105.339 89.1305 106.852L101.131 118.852L127.948 92.0349C129.461 90.5219 131.965 90.5219 133.478 92.0349C134.991 93.5479 134.991 96.0001 133.478 97.5653Z" fill="#23A26D"/>
</svg>
