<svg width="42" height="42" viewBox="0 0 42 42" fill="none" xmlns="http://www.w3.org/2000/svg">
<path d="M37.7788 5.94702L27.4994 5.94702C25.6819 5.94702 23.9388 6.66903 22.6537 7.9542C21.3685 9.23938 20.6465 10.9824 20.6465 12.8L20.6465 36.7853C20.6465 35.4221 21.188 34.1148 22.1519 33.1509C23.1158 32.1871 24.4231 31.6456 25.7862 31.6456L37.7788 31.6456V5.94702Z" stroke="white" stroke-width="3.42647" stroke-linecap="round" stroke-linejoin="round"/>
<path d="M3.51367 5.94702L13.7931 5.94702C15.6106 5.94702 17.3537 6.66903 18.6388 7.9542C19.924 9.23938 20.646 10.9824 20.646 12.8L20.646 36.7853C20.646 35.4221 20.1045 34.1148 19.1406 33.1509C18.1768 32.1871 16.8695 31.6456 15.5063 31.6456L3.51367 31.6456L3.51367 5.94702Z" stroke="#F8FAFC" stroke-width="3.42647" stroke-linecap="round" stroke-linejoin="round"/>
</svg>
