<svg width="1440" height="108" viewBox="0 0 1440 108" fill="none" xmlns="http://www.w3.org/2000/svg">
<path d="M11.833 56.5584C10.8139 67.7461 12.3642 79.5838 7.90046 89.9166C4.90117 96.8702 -6.78909 106.31 -14.3493 106.194C-21.9094 106.078 -36.2305 95.9176 -36.3705 89.9523C-36.9247 65.5472 -34.9306 41.1476 -30.4066 16.98C-29.372 11.3937 -15.0021 3.12655 -7.46711 3.51932C0.0678411 3.91209 12.0268 12.8763 13.3001 19.0992C15.7256 31.1417 12.0327 43.9776 10.8911 56.5093L11.833 56.5584Z" fill="#1E2C4F"/>
<path d="M55.626 54.2479C54.6068 65.4355 56.1572 77.2732 51.6934 87.6061C48.6941 94.5596 37.0039 103.999 29.4437 103.883C21.8836 103.767 7.56251 93.607 7.42245 87.6417C6.86827 63.2366 8.86241 38.837 13.3864 14.6695C14.421 9.08315 28.7909 0.816 36.3259 1.20877C43.8608 1.60154 55.8198 10.5657 57.093 16.7887C59.5185 28.8311 55.8257 41.6671 54.6841 54.1988L55.626 54.2479Z" fill="#1E2C4F"/>
<path d="M95.3447 54.2479C94.3256 65.4355 95.8759 77.2732 91.4122 87.6061C88.4129 94.5596 76.7226 103.999 69.1625 103.883C61.6023 103.767 47.2813 93.607 47.1412 87.6417C46.587 63.2366 48.5812 38.837 53.1051 14.6695C54.1398 9.08315 68.5097 0.816 76.0446 1.20877C83.5796 1.60154 95.5386 10.5657 96.8118 16.7887C99.2373 28.8311 95.5444 41.6671 94.4028 54.1988L95.3447 54.2479Z" fill="#1E2C4F"/>
<path d="M135.063 54.2479C134.044 65.4355 135.595 77.2732 131.131 87.6061C128.132 94.5596 116.441 103.999 108.881 103.883C101.321 103.767 87 93.607 86.8599 87.6417C86.3058 63.2366 88.2999 38.837 92.8239 14.6695C93.8585 9.08315 108.228 0.816 115.763 1.20877C123.298 1.60154 135.257 10.5657 136.531 16.7887C138.956 28.8311 135.263 41.6671 134.122 54.1988L135.063 54.2479Z" fill="#1E2C4F"/>
<path d="M174.782 54.2479C173.763 65.4355 175.313 77.2732 170.85 87.6061C167.85 94.5596 156.16 103.999 148.6 103.883C141.04 103.767 126.719 93.607 126.579 87.6417C126.025 63.2366 128.019 38.837 132.543 14.6695C133.577 9.08315 147.947 0.816 155.482 1.20877C163.017 1.60154 174.976 10.5657 176.249 16.7887C178.675 28.8311 174.982 41.6671 173.84 54.1988L174.782 54.2479Z" fill="#1E2C4F"/>
<path d="M214.501 54.2479C213.482 65.4355 215.032 77.2732 210.568 87.6061C207.569 94.5596 195.879 103.999 188.319 103.883C180.759 103.767 166.438 93.607 166.297 87.6417C165.743 63.2366 167.737 38.837 172.261 14.6695C173.296 9.08315 187.666 0.816 195.201 1.20877C202.736 1.60154 214.695 10.5657 215.968 16.7887C218.394 28.8311 214.701 41.6671 213.559 54.1988L214.501 54.2479Z" fill="#1E2C4F"/>
<path d="M254.22 54.2479C253.201 65.4355 254.751 77.2732 250.287 87.6061C247.288 94.5596 235.598 103.999 228.037 103.883C220.477 103.767 206.156 93.607 206.016 87.6417C205.462 63.2366 207.456 38.837 211.98 14.6695C213.015 9.08315 227.385 0.816 234.92 1.20877C242.455 1.60154 254.414 10.5657 255.687 16.7887C258.112 28.8311 254.419 41.6671 253.278 54.1988L254.22 54.2479Z" fill="#1E2C4F"/>
<path d="M293.938 54.2479C292.919 65.4355 294.47 77.2732 290.006 87.6061C287.007 94.5596 275.316 103.999 267.756 103.883C260.196 103.767 245.875 93.607 245.735 87.6417C245.181 63.2366 247.175 38.837 251.699 14.6695C252.734 9.08315 267.103 0.816 274.638 1.20877C282.173 1.60154 294.132 10.5657 295.406 16.7887C297.831 28.8311 294.138 41.6671 292.997 54.1988L293.938 54.2479Z" fill="#1E2C4F"/>
<path d="M333.657 54.2479C332.638 65.4355 334.188 77.2732 329.725 87.6061C326.725 94.5596 315.035 103.999 307.475 103.883C299.915 103.767 285.594 93.607 285.454 87.6417C284.9 63.2366 286.894 38.837 291.418 14.6695C292.452 9.08315 306.822 0.816 314.357 1.20877C321.892 1.60154 333.851 10.5657 335.124 16.7887C337.55 28.8311 333.857 41.6671 332.715 54.1988L333.657 54.2479Z" fill="#1E2C4F"/>
<path d="M373.376 54.2479C372.357 65.4355 373.907 77.2732 369.443 87.6061C366.444 94.5596 354.754 103.999 347.194 103.883C339.634 103.767 325.313 93.607 325.172 87.6417C324.618 63.2366 326.612 38.837 331.136 14.6695C332.171 9.08315 346.541 0.816 354.076 1.20877C361.611 1.60154 373.57 10.5657 374.843 16.7887C377.269 28.8311 373.576 41.6671 372.434 54.1988L373.376 54.2479Z" fill="#1E2C4F"/>
<path d="M413.095 54.2479C412.076 65.4355 413.626 77.2732 409.162 87.6061C406.163 94.5596 394.473 103.999 386.912 103.883C379.352 103.767 365.031 93.607 364.891 87.6417C364.337 63.2366 366.331 38.837 370.855 14.6695C371.89 9.08315 386.26 0.816 393.795 1.20877C401.33 1.60154 413.289 10.5657 414.562 16.7887C416.987 28.8311 413.294 41.6671 412.153 54.1988L413.095 54.2479Z" fill="#1E2C4F"/>
<path d="M452.813 54.2479C451.794 65.4355 453.345 77.2732 448.881 87.6061C445.882 94.5596 434.191 103.999 426.631 103.883C419.071 103.767 404.75 93.607 404.61 87.6417C404.056 63.2366 406.05 38.837 410.574 14.6695C411.609 9.08315 425.978 0.816 433.513 1.20877C441.048 1.60154 453.007 10.5657 454.281 16.7887C456.706 28.8311 453.013 41.6671 451.872 54.1988L452.813 54.2479Z" fill="#1E2C4F"/>
<path d="M492.532 54.2479C491.513 65.4355 493.063 77.2732 488.6 87.6061C485.6 94.5596 473.91 103.999 466.35 103.883C458.79 103.767 444.469 93.607 444.329 87.6417C443.775 63.2366 445.769 38.837 450.293 14.6695C451.327 9.08315 465.697 0.816 473.232 1.20877C480.767 1.60154 492.726 10.5657 493.999 16.7887C496.425 28.8311 492.732 41.6671 491.59 54.1988L492.532 54.2479Z" fill="#1E2C4F"/>
<path d="M532.251 54.2479C531.232 65.4355 532.782 77.2732 528.318 87.6061C525.319 94.5596 513.629 103.999 506.069 103.883C498.509 103.767 484.188 93.607 484.047 87.6417C483.493 63.2366 485.487 38.837 490.011 14.6695C491.046 9.08315 505.416 0.816 512.951 1.20877C520.486 1.60154 532.445 10.5657 533.718 16.7887C536.144 28.8311 532.451 41.6671 531.309 54.1988L532.251 54.2479Z" fill="#1E2C4F"/>
<path d="M571.97 54.2479C570.951 65.4355 572.501 77.2732 568.037 87.6061C565.038 94.5596 553.348 103.999 545.787 103.883C538.227 103.767 523.906 93.607 523.766 87.6417C523.212 63.2366 525.206 38.837 529.73 14.6695C530.765 9.08315 545.135 0.816 552.67 1.20877C560.205 1.60154 572.164 10.5657 573.437 16.7887C575.862 28.8311 572.169 41.6671 571.028 54.1988L571.97 54.2479Z" fill="#1E2C4F"/>
<path d="M611.692 54.2479C610.673 65.4355 612.224 77.2732 607.76 87.6061C604.761 94.5596 593.07 103.999 585.51 103.883C577.95 103.767 563.629 93.607 563.489 87.6417C562.935 63.2366 564.929 38.837 569.453 14.6695C570.487 9.08315 584.857 0.816 592.392 1.20877C599.927 1.60154 611.886 10.5657 613.159 16.7887C615.585 28.8311 611.892 41.6671 610.75 54.1988L611.692 54.2479Z" fill="#1E2C4F"/>
<path d="M651.411 54.2479C650.392 65.4355 651.942 77.2732 647.479 87.6061C644.479 94.5596 632.789 103.999 625.229 103.883C617.669 103.767 603.348 93.607 603.208 87.6417C602.653 63.2366 604.648 38.837 609.172 14.6695C610.206 9.08315 624.576 0.816 632.111 1.20877C639.646 1.60154 651.605 10.5657 652.878 16.7887C655.304 28.8311 651.611 41.6671 650.469 54.1988L651.411 54.2479Z" fill="#1E2C4F"/>
<path d="M691.13 54.2479C690.111 65.4355 691.661 77.2732 687.197 87.6061C684.198 94.5596 672.508 103.999 664.948 103.883C657.387 103.767 643.066 93.607 642.926 87.6417C642.372 63.2366 644.366 38.837 648.89 14.6695C649.925 9.08315 664.295 0.816 671.83 1.20877C679.365 1.60154 691.324 10.5657 692.597 16.7887C695.022 28.8311 691.33 41.6671 690.188 54.1988L691.13 54.2479Z" fill="#1E2C4F"/>
<path d="M730.849 54.2479C729.829 65.4355 731.38 77.2732 726.916 87.6061C723.917 94.5596 712.227 103.999 704.666 103.883C697.106 103.767 682.785 93.607 682.645 87.6417C682.091 63.2366 684.085 38.837 688.609 14.6695C689.644 9.08315 704.014 0.816 711.549 1.20877C719.083 1.60154 731.042 10.5657 732.316 16.7887C734.741 28.8311 731.048 41.6671 729.907 54.1988L730.849 54.2479Z" fill="#1E2C4F"/>
<path d="M770.567 54.2479C769.548 65.4355 771.099 77.2732 766.635 87.6061C763.636 94.5596 751.945 103.999 744.385 103.883C736.825 103.767 722.504 93.607 722.364 87.6417C721.81 63.2366 723.804 38.837 728.328 14.6695C729.362 9.08315 743.732 0.816 751.267 1.20877C758.802 1.60154 770.761 10.5657 772.034 16.7887C774.46 28.8311 770.767 41.6671 769.625 54.1988L770.567 54.2479Z" fill="#1E2C4F"/>
<path d="M810.286 54.2479C809.267 65.4355 810.817 77.2732 806.354 87.6061C803.354 94.5596 791.664 103.999 784.104 103.883C776.544 103.767 762.223 93.607 762.083 87.6417C761.528 63.2366 763.523 38.837 768.047 14.6695C769.081 9.08315 783.451 0.816 790.986 1.20877C798.521 1.60154 810.48 10.5657 811.753 16.7887C814.179 28.8311 810.486 41.6671 809.344 54.1988L810.286 54.2479Z" fill="#1E2C4F"/>
<path d="M850.005 54.2479C848.986 65.4355 850.536 77.2732 846.072 87.6061C843.073 94.5596 831.383 103.999 823.823 103.883C816.262 103.767 801.941 93.607 801.801 87.6417C801.247 63.2366 803.241 38.837 807.765 14.6695C808.8 9.08315 823.17 0.816 830.705 1.20877C838.24 1.60154 850.199 10.5657 851.472 16.7887C853.897 28.8311 850.205 41.6671 849.063 54.1988L850.005 54.2479Z" fill="#1E2C4F"/>
<path d="M889.724 54.2479C888.704 65.4355 890.255 77.2732 885.791 87.6061C882.792 94.5596 871.102 103.999 863.541 103.883C855.981 103.767 841.66 93.607 841.52 87.6417C840.966 63.2366 842.96 38.837 847.484 14.6695C848.519 9.08315 862.889 0.816 870.424 1.20877C877.958 1.60154 889.917 10.5657 891.191 16.7887C893.616 28.8311 889.923 41.6671 888.782 54.1988L889.724 54.2479Z" fill="#1E2C4F"/>
<path d="M929.442 54.2479C928.423 65.4355 929.974 77.2732 925.51 87.6061C922.511 94.5596 910.82 103.999 903.26 103.883C895.7 103.767 881.379 93.607 881.239 87.6417C880.685 63.2366 882.679 38.837 887.203 14.6695C888.237 9.08315 902.607 0.816 910.142 1.20877C917.677 1.60154 929.636 10.5657 930.909 16.7887C933.335 28.8311 929.642 41.6671 928.5 54.1988L929.442 54.2479Z" fill="#1E2C4F"/>
<path d="M969.161 54.2479C968.142 65.4355 969.692 77.2732 965.229 87.6061C962.229 94.5596 950.539 103.999 942.979 103.883C935.419 103.767 921.098 93.607 920.958 87.6417C920.403 63.2366 922.398 38.837 926.922 14.6695C927.956 9.08315 942.326 0.816 949.861 1.20877C957.396 1.60154 969.355 10.5657 970.628 16.7887C973.054 28.8311 969.361 41.6671 968.219 54.1988L969.161 54.2479Z" fill="#1E2C4F"/>
<path d="M1008.88 54.2479C1007.86 65.4355 1009.41 77.2732 1004.95 87.6061C1001.95 94.5596 990.258 103.999 982.698 103.883C975.137 103.767 960.816 93.607 960.676 87.6417C960.122 63.2366 962.116 38.837 966.64 14.6695C967.675 9.08315 982.045 0.816 989.58 1.20877C997.115 1.60154 1009.07 10.5657 1010.35 16.7887C1012.77 28.8311 1009.08 41.6671 1007.94 54.1988L1008.88 54.2479Z" fill="#1E2C4F"/>
<path d="M1048.6 54.2479C1047.58 65.4355 1049.13 77.2732 1044.67 87.6061C1041.67 94.5596 1029.98 103.999 1022.42 103.883C1014.86 103.767 1000.54 93.607 1000.4 87.6417C999.841 63.2366 1001.84 38.837 1006.36 14.6695C1007.39 9.08315 1021.76 0.816 1029.3 1.20877C1036.83 1.60154 1048.79 10.5657 1050.07 16.7887C1052.49 28.8311 1048.8 41.6671 1047.66 54.1988L1048.6 54.2479Z" fill="#1E2C4F"/>
<path d="M1088.32 54.2479C1087.3 65.4355 1088.85 77.2732 1084.38 87.6061C1081.39 94.5596 1069.7 103.999 1062.14 103.883C1054.57 103.767 1040.25 93.607 1040.11 87.6417C1039.56 63.2366 1041.55 38.837 1046.08 14.6695C1047.11 9.08315 1061.48 0.816 1069.02 1.20877C1076.55 1.60154 1088.51 10.5657 1089.78 16.7887C1092.21 28.8311 1088.52 41.6671 1087.38 54.1988L1088.32 54.2479Z" fill="#1E2C4F"/>
<path d="M1128.04 54.2479C1127.02 65.4355 1128.57 77.2732 1124.11 87.6061C1121.11 94.5596 1109.42 103.999 1101.86 103.883C1094.3 103.767 1079.98 93.607 1079.84 87.6417C1079.28 63.2366 1081.28 38.837 1085.8 14.6695C1086.84 9.08315 1101.2 0.816 1108.74 1.20877C1116.27 1.60154 1128.23 10.5657 1129.51 16.7887C1131.93 28.8311 1128.24 41.6671 1127.1 54.1988L1128.04 54.2479Z" fill="#1E2C4F"/>
<path d="M1167.76 54.2479C1166.74 65.4355 1168.29 77.2732 1163.83 87.6061C1160.83 94.5596 1149.14 103.999 1141.58 103.883C1134.02 103.767 1119.7 93.607 1119.56 87.6417C1119 63.2366 1121 38.837 1125.52 14.6695C1126.55 9.08315 1140.92 0.816 1148.46 1.20877C1155.99 1.60154 1167.95 10.5657 1169.23 16.7887C1171.65 28.8311 1167.96 41.6671 1166.82 54.1988L1167.76 54.2479Z" fill="#1E2C4F"/>
<path d="M1207.48 54.2479C1206.46 65.4355 1208.01 77.2732 1203.54 87.6061C1200.55 94.5596 1188.86 103.999 1181.3 103.883C1173.74 103.767 1159.41 93.607 1159.27 87.6417C1158.72 63.2366 1160.71 38.837 1165.24 14.6695C1166.27 9.08315 1180.64 0.816 1188.18 1.20877C1195.71 1.60154 1207.67 10.5657 1208.94 16.7887C1211.37 28.8311 1207.68 41.6671 1206.54 54.1988L1207.48 54.2479Z" fill="#1E2C4F"/>
<path d="M1247.2 54.2479C1246.18 65.4355 1247.73 77.2732 1243.26 87.6061C1240.26 94.5596 1228.57 103.999 1221.01 103.883C1213.45 103.767 1199.13 93.607 1198.99 87.6417C1198.44 63.2366 1200.43 38.837 1204.96 14.6695C1205.99 9.08315 1220.36 0.816 1227.9 1.20877C1235.43 1.60154 1247.39 10.5657 1248.66 16.7887C1251.09 28.8311 1247.4 41.6671 1246.25 54.1988L1247.2 54.2479Z" fill="#1E2C4F"/>
<path d="M1286.92 54.2479C1285.9 65.4355 1287.45 77.2732 1282.98 87.6061C1279.98 94.5596 1268.29 103.999 1260.73 103.883C1253.17 103.767 1238.85 93.607 1238.71 87.6417C1238.16 63.2366 1240.15 38.837 1244.68 14.6695C1245.71 9.08315 1260.08 0.816 1267.61 1.20877C1275.15 1.60154 1287.11 10.5657 1288.38 16.7887C1290.81 28.8311 1287.11 41.6671 1285.97 54.1988L1286.92 54.2479Z" fill="#1E2C4F"/>
<path d="M1326.63 54.2479C1325.61 65.4355 1327.16 77.2732 1322.7 87.6061C1319.7 94.5596 1308.01 103.999 1300.45 103.883C1292.89 103.767 1278.57 93.607 1278.43 87.6417C1277.87 63.2366 1279.87 38.837 1284.39 14.6695C1285.42 9.08315 1299.79 0.816 1307.33 1.20877C1314.86 1.60154 1326.82 10.5657 1328.1 16.7887C1330.52 28.8311 1326.83 41.6671 1325.69 54.1988L1326.63 54.2479Z" fill="#1E2C4F"/>
<path d="M1366.35 54.2479C1365.33 65.4355 1366.88 77.2732 1362.42 87.6061C1359.42 94.5596 1347.73 103.999 1340.17 103.883C1332.61 103.767 1318.29 93.607 1318.15 87.6417C1317.59 63.2366 1319.59 38.837 1324.11 14.6695C1325.15 9.08315 1339.52 0.816 1347.05 1.20877C1354.59 1.60154 1366.55 10.5657 1367.82 16.7887C1370.25 28.8311 1366.55 41.6671 1365.41 54.1988L1366.35 54.2479Z" fill="#1E2C4F"/>
<path d="M1406.07 54.2479C1405.05 65.4355 1406.6 77.2732 1402.14 87.6061C1399.14 94.5596 1387.45 103.999 1379.89 103.883C1372.33 103.767 1358.01 93.607 1357.87 87.6417C1357.31 63.2366 1359.31 38.837 1363.83 14.6695C1364.87 9.08315 1379.24 0.816 1386.77 1.20877C1394.31 1.60154 1406.27 10.5657 1407.54 16.7887C1409.96 28.8311 1406.27 41.6671 1405.13 54.1988L1406.07 54.2479Z" fill="#1E2C4F"/>
<path d="M1445.79 54.2479C1444.77 65.4355 1446.32 77.2732 1441.86 87.6061C1438.86 94.5596 1427.17 103.999 1419.61 103.883C1412.05 103.767 1397.73 93.607 1397.59 87.6417C1397.03 63.2366 1399.03 38.837 1403.55 14.6695C1404.59 9.08315 1418.95 0.816 1426.49 1.20877C1434.02 1.60154 1445.98 10.5657 1447.26 16.7887C1449.68 28.8311 1445.99 41.6671 1444.85 54.1988L1445.79 54.2479Z" fill="#1E2C4F"/>
</svg>
