<svg width="1440" height="560" viewBox="0 0 1440 560" fill="none" xmlns="http://www.w3.org/2000/svg">
<g clip-path="url(#clip0_2123_15729)">
<mask id="path-1-inside-1_2123_15729" fill="white">
<path d="M0 54H1454V499H0V54Z"/>
</mask>
<path d="M0 54H1454V499H0V54Z" fill="#1E2C4F"/>
<g clip-path="url(#clip1_2123_15729)">
<path d="M379.009 302.848C335.139 290.468 292.245 278.785 249.975 265.431C246.712 264.378 244.01 248.171 247.312 243.096C251.521 236.619 262.97 229.752 269.844 230.978C305.845 237.463 341.509 245.589 376.837 255.355C383.605 257.243 390.98 268.174 392.17 275.842C393.174 282.302 385.575 290.024 379.009 302.848Z" fill="#596A94"/>
<path d="M261.801 -3.61479C268.578 2.69785 277.488 7.97408 281.478 15.8867C285.469 23.7994 287.124 34.7418 283.678 41.168C266.808 72.6962 248.981 103.574 229.13 133.534C224.9 139.964 210.986 145.546 204.284 143.293C197.583 141.04 186.452 125.458 188.507 121.652C208.4 84.2742 230.575 48.1491 252.235 11.7423C252.995 10.5162 255.184 10.1277 256.797 9.31658L261.801 -3.61479Z" fill="#596A94"/>
<path d="M314.484 175.586C300.799 182.862 288.177 192.593 273.647 196.367C264.569 198.732 253.153 192.075 242.637 189.569C246.121 178.698 246.306 162.417 253.626 158.067C283.727 140.324 315.036 124.714 347.322 111.352C355.119 107.973 371.212 112.21 376.989 118.676C387.45 130.511 380.448 142.459 367.026 149.565C349.71 158.695 332.244 167.61 314.84 176.666L314.484 175.586Z" fill="#596A94"/>
<path d="M136.992 73.6256C142.78 86.9816 151.359 99.9127 153.403 113.826C154.741 123 146.78 133.513 142.976 143.515C133.044 139.635 117.861 138.534 114.036 131.391C99.3864 104.165 87.071 75.7469 77.2211 46.4411C74.7675 39.0957 82.7444 23.6985 90.2127 19.1727C95.4615 16.0011 111.826 22.4195 116.617 29.2005C126.035 42.3848 130.535 58.5973 136.992 73.6256Z" fill="#596A94"/>
<path d="M256.435 334.217C262.223 347.573 270.639 360.519 272.913 374.444C274.448 383.814 269.888 399.972 263.227 403.252C256.565 406.531 238.014 401.284 234.332 394.471C219.284 366.59 206.461 337.564 195.983 307.664C193.551 300.758 201.148 284.741 207.952 281.792C214.757 278.843 230.534 283.777 235.358 290.376C244.66 303.162 249.1 319.625 255.584 334.586L256.435 334.217Z" fill="#596A94"/>
<path d="M160.605 293.118C159.69 302.147 159.64 308.895 158.291 315.366C153.891 340.535 148.188 365.46 141.203 390.041C138.462 398.74 127.251 409.653 118.926 410.907C104.221 412.851 94.8555 401.213 97.6747 386.089C102.993 355.921 109.825 326.037 118.144 296.551C120.021 290.132 131.51 283.359 139.242 282.419C145.825 281.808 153.22 289.03 160.605 293.118Z" fill="#596A94"/>
<path d="M70.5149 280.418C55.0099 289.324 40.3181 300.624 23.6995 306.312C13.901 309.605 1.43863 303.514 -9.87264 301.633C-6.32141 290.788 -6.08776 274.879 1.3255 270.096C24.3549 255.493 48.9333 243.488 74.6089 234.302C82.8671 231.34 100.103 237.436 105.092 244.804C113.826 257.836 104.088 268.391 90.1182 273.716C83.7375 276.089 77.5959 279.143 71.2166 281.907L70.5149 280.418Z" fill="#596A94"/>
<path d="M2.51544 130.502C15.7256 131.697 28.861 133.602 41.865 136.208C55.8055 139.753 70.5508 143.341 82.3288 150.962C90.1835 156.135 99.773 169.974 97.7685 176.616C95.4974 184.327 80.2266 194.421 72.3119 193.254C48.0856 188.887 24.3569 182.119 1.47787 173.05C-4.10087 170.927 -9.41414 159.833 -9.31037 152.948C-9.2066 146.064 -2.21429 138.886 2.51544 130.502Z" fill="#596A94"/>
</g>
<g clip-path="url(#clip2_2123_15729)">
<path d="M579.009 596.848C535.139 584.468 492.245 572.785 449.975 559.431C446.712 558.378 444.01 542.171 447.312 537.096C451.521 530.62 462.97 523.752 469.844 524.978C505.845 531.463 541.509 539.589 576.837 549.355C583.605 551.243 590.98 562.174 592.17 569.842C593.174 576.302 585.575 584.024 579.009 596.848Z" fill="#596A94"/>
<path d="M461.801 290.385C468.578 296.698 477.488 301.974 481.478 309.887C485.469 317.799 487.124 328.742 483.678 335.168C466.808 366.696 448.981 397.574 429.13 427.534C424.9 433.964 410.986 439.546 404.284 437.293C397.583 435.04 386.452 419.458 388.507 415.652C408.4 378.274 430.575 342.149 452.235 305.742C452.995 304.516 455.184 304.128 456.797 303.317L461.801 290.385Z" fill="#596A94"/>
<path d="M514.484 469.586C500.799 476.862 488.177 486.593 473.647 490.367C464.569 492.732 453.153 486.075 442.637 483.569C446.121 472.698 446.306 456.417 453.626 452.067C483.727 434.324 515.036 418.714 547.322 405.352C555.119 401.973 571.212 406.21 576.989 412.676C587.45 424.511 580.448 436.459 567.026 443.565C549.71 452.695 532.244 461.61 514.84 470.666L514.484 469.586Z" fill="#596A94"/>
<path d="M336.992 367.626C342.781 380.982 351.359 393.913 353.404 407.826C354.742 417 346.781 427.513 342.976 437.515C333.044 433.635 317.861 432.534 314.036 425.391C299.387 398.165 287.071 369.747 277.222 340.441C274.768 333.096 282.745 317.698 290.213 313.173C295.462 310.001 311.827 316.42 316.618 323.2C326.036 336.385 330.536 352.597 336.992 367.626Z" fill="#596A94"/>
<path d="M202.515 424.502C215.726 425.697 228.861 427.602 241.865 430.208C255.805 433.753 270.551 437.341 282.329 444.962C290.183 450.135 299.773 463.974 297.769 470.616C295.497 478.327 280.227 488.421 272.312 487.254C248.086 482.887 224.357 476.119 201.478 467.05C195.899 464.927 190.586 453.833 190.69 446.948C190.793 440.064 197.786 432.886 202.515 424.502Z" fill="#596A94"/>
</g>
<g clip-path="url(#clip3_2123_15729)">
<path d="M877.009 377.848C833.139 365.468 790.245 353.785 747.975 340.431C744.712 339.378 742.01 323.171 745.312 318.096C749.521 311.619 760.97 304.752 767.844 305.978C803.845 312.463 839.509 320.589 874.837 330.355C881.605 332.243 888.98 343.174 890.17 350.842C891.174 357.302 883.575 365.024 877.009 377.848Z" fill="#596A94"/>
<path d="M759.801 71.3852C766.578 77.6978 775.488 82.9741 779.478 90.8867C783.469 98.7994 785.124 109.742 781.678 116.168C764.808 147.696 746.981 178.574 727.13 208.534C722.9 214.964 708.986 220.546 702.284 218.293C695.583 216.04 684.452 200.458 686.507 196.652C706.4 159.274 728.575 123.149 750.235 86.7423C750.995 85.5162 753.184 85.1277 754.797 84.3166L759.801 71.3852Z" fill="#596A94"/>
<path d="M812.484 250.586C798.799 257.862 786.177 267.593 771.647 271.367C762.569 273.732 751.153 267.075 740.637 264.569C744.121 253.698 744.306 237.417 751.626 233.067C781.727 215.324 813.036 199.714 845.322 186.352C853.119 182.973 869.212 187.21 874.989 193.676C885.45 205.511 878.448 217.459 865.026 224.565C847.71 233.695 830.244 242.61 812.84 251.666L812.484 250.586Z" fill="#596A94"/>
<path d="M634.992 148.626C640.781 161.982 649.359 174.913 651.404 188.826C652.742 198 644.781 208.513 640.976 218.515C631.044 214.635 615.861 213.534 612.036 206.391C597.387 179.165 585.071 150.747 575.222 121.441C572.768 114.096 580.745 98.6985 588.213 94.1727C593.462 91.0011 609.827 97.4195 614.618 104.2C624.036 117.385 628.536 133.597 634.992 148.626Z" fill="#596A94"/>
<path d="M754.435 409.217C760.223 422.573 768.639 435.519 770.913 449.444C772.448 458.814 767.888 474.972 761.227 478.252C754.565 481.531 736.014 476.284 732.332 469.471C717.284 441.59 704.461 412.564 693.983 382.664C691.551 375.758 699.148 359.741 705.952 356.792C712.757 353.843 728.534 358.777 733.358 365.376C742.66 378.162 747.1 394.625 753.584 409.586L754.435 409.217Z" fill="#596A94"/>
<path d="M658.605 368.118C657.69 377.147 657.64 383.895 656.291 390.366C651.891 415.535 646.188 440.46 639.203 465.041C636.462 473.74 625.251 484.653 616.926 485.906C602.221 487.851 592.855 476.213 595.675 461.089C600.993 430.921 607.825 401.037 616.144 371.551C618.021 365.132 629.51 358.359 637.242 357.419C643.825 356.808 651.22 364.03 658.605 368.118Z" fill="#596A94"/>
<path d="M568.515 355.418C553.01 364.324 538.318 375.624 521.699 381.312C511.901 384.605 499.439 378.514 488.127 376.633C491.679 365.788 491.912 349.879 499.326 345.096C522.355 330.493 546.933 318.488 572.609 309.302C580.867 306.34 598.103 312.436 603.092 319.804C611.826 332.836 602.088 343.391 588.118 348.716C581.737 351.089 575.596 354.143 569.217 356.907L568.515 355.418Z" fill="#596A94"/>
<path d="M500.515 205.502C513.726 206.697 526.861 208.602 539.865 211.208C553.805 214.753 568.551 218.341 580.329 225.962C588.183 231.135 597.773 244.974 595.769 251.616C593.497 259.327 578.227 269.421 570.312 268.254C546.086 263.887 522.357 257.119 499.478 248.05C493.899 245.927 488.586 234.833 488.69 227.948C488.793 221.064 495.786 213.886 500.515 205.502Z" fill="#596A94"/>
</g>
<g clip-path="url(#clip4_2123_15729)">
<path d="M1222.01 297.848C1178.14 285.468 1135.25 273.785 1092.97 260.431C1089.71 259.378 1087.01 243.171 1090.31 238.096C1094.52 231.619 1105.97 224.752 1112.84 225.978C1148.84 232.463 1184.51 240.589 1219.84 250.355C1226.61 252.243 1233.98 263.174 1235.17 270.842C1236.17 277.302 1228.58 285.024 1222.01 297.848Z" fill="#596A94"/>
<path d="M1104.8 -8.61479C1111.58 -2.30215 1120.49 2.97408 1124.48 10.8867C1128.47 18.7994 1130.12 29.7418 1126.68 36.168C1109.81 67.6962 1091.98 98.5735 1072.13 128.534C1067.9 134.964 1053.99 140.546 1047.28 138.293C1040.58 136.04 1029.45 120.458 1031.51 116.652C1051.4 79.2742 1073.57 43.1491 1095.24 6.74234C1095.99 5.51623 1098.18 5.12771 1099.8 4.31658L1104.8 -8.61479Z" fill="#596A94"/>
<path d="M1157.48 170.586C1143.8 177.862 1131.18 187.593 1116.65 191.367C1107.57 193.732 1096.15 187.075 1085.64 184.569C1089.12 173.698 1089.31 157.417 1096.63 153.067C1126.73 135.324 1158.04 119.714 1190.32 106.352C1198.12 102.973 1214.21 107.21 1219.99 113.676C1230.45 125.511 1223.45 137.459 1210.03 144.565C1192.71 153.695 1175.24 162.61 1157.84 171.666L1157.48 170.586Z" fill="#596A94"/>
<path d="M979.992 68.6256C985.781 81.9816 994.359 94.9127 996.404 108.826C997.742 118 989.781 128.513 985.976 138.515C976.044 134.635 960.861 133.534 957.036 126.391C942.387 99.1649 930.071 70.7469 920.222 41.4411C917.768 34.0957 925.745 18.6985 933.213 14.1727C938.462 11.0011 954.827 17.4195 959.618 24.2005C969.036 37.3848 973.536 53.5973 979.992 68.6256Z" fill="#596A94"/>
<path d="M1099.43 329.217C1105.22 342.573 1113.64 355.519 1115.91 369.444C1117.45 378.814 1112.89 394.972 1106.23 398.252C1099.57 401.531 1081.01 396.284 1077.33 389.471C1062.28 361.59 1049.46 332.564 1038.98 302.664C1036.55 295.758 1044.15 279.741 1050.95 276.792C1057.76 273.843 1073.53 278.777 1078.36 285.376C1087.66 298.162 1092.1 314.625 1098.58 329.586L1099.43 329.217Z" fill="#596A94"/>
<path d="M1003.6 288.118C1002.69 297.147 1002.64 303.895 1001.29 310.366C996.891 335.535 991.188 360.46 984.203 385.041C981.462 393.74 970.251 404.653 961.926 405.907C947.221 407.851 937.855 396.213 940.675 381.089C945.993 350.921 952.825 321.037 961.144 291.551C963.021 285.132 974.51 278.359 982.242 277.419C988.825 276.808 996.22 284.03 1003.6 288.118Z" fill="#596A94"/>
<path d="M913.515 275.418C898.01 284.324 883.318 295.624 866.699 301.312C856.901 304.605 844.439 298.514 833.127 296.633C836.679 285.788 836.912 269.879 844.326 265.096C867.355 250.493 891.933 238.488 917.609 229.302C925.867 226.34 943.103 232.436 948.092 239.804C956.826 252.836 947.088 263.391 933.118 268.716C926.737 271.089 920.596 274.143 914.217 276.907L913.515 275.418Z" fill="#596A94"/>
<path d="M845.515 125.502C858.726 126.697 871.861 128.602 884.865 131.208C898.805 134.753 913.551 138.341 925.329 145.962C933.183 151.135 942.773 164.974 940.769 171.616C938.497 179.327 923.227 189.421 915.312 188.254C891.086 183.887 867.357 177.119 844.478 168.05C838.899 165.927 833.586 154.833 833.69 147.948C833.793 141.064 840.786 133.886 845.515 125.502Z" fill="#596A94"/>
</g>
<g clip-path="url(#clip5_2123_15729)">
<path d="M1462.01 586.848C1418.14 574.468 1375.25 562.785 1332.97 549.431C1329.71 548.378 1327.01 532.171 1330.31 527.096C1334.52 520.62 1345.97 513.752 1352.84 514.978C1388.84 521.463 1424.51 529.589 1459.84 539.355C1466.61 541.243 1473.98 552.174 1475.17 559.842C1476.17 566.302 1468.58 574.024 1462.01 586.848Z" fill="#596A94"/>
<path d="M1344.8 280.385C1351.58 286.698 1360.49 291.974 1364.48 299.887C1368.47 307.799 1370.12 318.742 1366.68 325.168C1349.81 356.696 1331.98 387.574 1312.13 417.534C1307.9 423.964 1293.99 429.546 1287.28 427.293C1280.58 425.04 1269.45 409.458 1271.51 405.652C1291.4 368.274 1313.57 332.149 1335.24 295.742C1335.99 294.516 1338.18 294.128 1339.8 293.317L1344.8 280.385Z" fill="#596A94"/>
<path d="M1397.48 459.586C1383.8 466.862 1371.18 476.593 1356.65 480.367C1347.57 482.732 1336.15 476.075 1325.64 473.569C1329.12 462.698 1329.31 446.417 1336.63 442.067C1366.73 424.324 1398.04 408.714 1430.32 395.352C1438.12 391.973 1454.21 396.21 1459.99 402.676C1470.45 414.511 1463.45 426.459 1450.03 433.565C1432.71 442.695 1415.24 451.61 1397.84 460.666L1397.48 459.586Z" fill="#596A94"/>
<path d="M1219.99 357.626C1225.78 370.982 1234.36 383.913 1236.4 397.826C1237.74 407 1229.78 417.513 1225.98 427.515C1216.04 423.635 1200.86 422.534 1197.04 415.391C1182.39 388.165 1170.07 359.747 1160.22 330.441C1157.77 323.096 1165.74 307.698 1173.21 303.173C1178.46 300.001 1194.83 306.42 1199.62 313.2C1209.04 326.385 1213.54 342.597 1219.99 357.626Z" fill="#596A94"/>
<path d="M1085.52 414.502C1098.73 415.697 1111.86 417.602 1124.86 420.208C1138.81 423.753 1153.55 427.341 1165.33 434.962C1173.18 440.135 1182.77 453.974 1180.77 460.616C1178.5 468.327 1163.23 478.421 1155.31 477.254C1131.09 472.887 1107.36 466.119 1084.48 457.05C1078.9 454.927 1073.59 443.833 1073.69 436.948C1073.79 430.064 1080.79 422.886 1085.52 414.502Z" fill="#596A94"/>
</g>
<g clip-path="url(#clip6_2123_15729)">
<path d="M1498.38 197.867C1504.93 210.865 1514.08 223.301 1517.16 237.071C1519.24 246.336 1515.62 262.732 1509.16 266.392C1502.7 270.051 1483.88 265.888 1479.8 259.3C1463.17 232.338 1448.68 204.104 1436.49 174.861C1433.66 168.107 1440.32 151.677 1446.94 148.339C1453.56 145.001 1469.6 149.012 1474.8 155.32C1484.82 167.546 1490.21 183.724 1497.55 198.284L1498.38 197.867Z" fill="#596A94"/>
<path d="M1400.33 162.389C1399.94 171.456 1400.28 178.196 1399.31 184.734C1396.37 210.115 1392.12 235.329 1386.57 260.273C1384.34 269.117 1373.78 280.661 1365.54 282.395C1350.98 285.187 1340.95 274.112 1342.89 258.85C1346.45 228.425 1351.54 198.195 1358.14 168.277C1359.64 161.76 1370.72 154.332 1378.38 152.946C1384.92 151.955 1392.72 158.736 1400.33 162.389Z" fill="#596A94"/>
<path d="M1309.65 154.93C1294.69 164.719 1280.68 176.852 1264.42 183.493C1254.83 187.349 1242.03 181.99 1230.63 180.767C1233.55 169.735 1232.86 153.839 1239.98 148.635C1262.13 132.722 1285.97 119.313 1311.07 108.654C1319.14 105.219 1336.7 110.306 1342.11 117.373C1351.58 129.877 1342.47 140.978 1328.84 147.104C1322.6 149.842 1316.65 153.247 1310.44 156.376L1309.65 154.93Z" fill="#596A94"/>
<path d="M1233.08 9.206C1246.34 9.63407 1259.56 10.7745 1272.7 12.6228C1286.82 15.3536 1301.75 18.0815 1313.95 25.0071C1322.09 29.7163 1332.46 42.9763 1330.85 49.7239C1329.03 57.5537 1314.37 68.515 1306.4 67.8088C1281.96 64.8528 1257.88 59.4707 1234.51 51.7431C1228.82 49.9469 1222.87 39.1786 1222.58 32.3001C1222.28 25.4216 1228.85 17.8502 1233.08 9.206Z" fill="#596A94"/>
</g>
<g clip-path="url(#clip7_2123_15729)">
<path d="M661.009 92.8481C617.139 80.4674 574.245 68.7847 531.975 55.4308C528.712 54.3782 526.01 38.1708 529.312 33.0963C533.521 26.6194 544.97 19.7522 551.844 20.9777C587.845 27.4628 623.509 35.5886 658.837 45.3552C665.605 47.2432 672.98 58.1735 674.17 65.8421C675.174 72.3023 667.575 80.0242 661.009 92.8481Z" fill="#596A94"/>
<path d="M538.435 124.217C544.223 137.573 552.639 150.518 554.913 164.444C556.448 173.813 551.888 189.972 545.227 193.252C538.565 196.531 520.014 191.284 516.332 184.471C501.284 156.59 488.461 127.564 477.983 97.664C475.551 90.7576 483.148 74.7409 489.952 71.792C496.757 68.8431 512.534 73.7772 517.358 80.3756C526.66 93.1619 531.1 109.625 537.584 124.586L538.435 124.217Z" fill="#596A94"/>
<path d="M442.605 83.1177C441.69 92.1468 441.64 98.8951 440.291 105.366C435.891 130.535 430.188 155.46 423.203 180.041C420.462 188.74 409.251 199.653 400.926 200.906C386.221 202.851 376.855 191.213 379.675 176.089C384.993 145.921 391.825 116.037 400.144 86.5512C402.021 80.132 413.51 73.3588 421.242 72.4188C427.825 71.8082 435.22 79.0303 442.605 83.1177Z" fill="#596A94"/>
<path d="M352.515 70.4178C337.01 79.3234 322.318 90.6234 305.699 96.3118C295.901 99.6052 283.439 93.5138 272.127 91.6327C275.679 80.7882 275.912 64.8785 283.326 60.0962C306.355 45.4933 330.933 33.4883 356.609 24.3016C364.867 21.3394 382.103 27.436 387.092 34.8037C395.826 47.8358 386.088 58.3907 372.118 63.7159C365.737 66.0887 359.596 69.1427 353.217 71.9072L352.515 70.4178Z" fill="#596A94"/>
</g>
<path d="M801 335.076C800.413 335.893 800.018 336.558 799.52 337.127C795.952 341.167 792.43 345.254 788.711 349.146C788.036 349.858 786.514 349.736 785.382 350C785.299 348.824 784.681 347.194 785.216 346.551C788.924 342.068 792.83 337.749 796.798 333.494C797.271 332.966 798.569 332.887 799.307 333.135C800.044 333.383 800.382 334.327 801 335.076Z" fill="#032BF2"/>
<path d="M793.662 355C793.157 354.598 792.308 354.26 792.146 353.709C791.914 353.034 791.939 351.764 792.364 351.466C795.613 349.197 798.934 346.999 802.386 345.053C802.861 344.78 804.443 345.619 804.913 346.329C805.216 346.795 804.68 348.289 804.069 348.731C801.319 350.716 798.418 352.503 795.548 354.325C794.943 354.61 794.312 354.836 793.662 355Z" fill="#032BF2"/>
<path d="M777 344.783C778.803 340.796 780.388 337.077 782.233 333.492C782.478 333.011 784.286 332.819 784.945 333.209C785.605 333.599 786.184 335.074 785.945 335.774C784.78 339.196 783.427 342.552 781.893 345.825C781.574 346.503 780.154 347.107 779.361 346.984C778.569 346.861 777.989 345.76 777 344.783Z" fill="#032BF2"/>
</g>
<path d="M0 56H1454V52H0V56ZM1454 497H0V501H1454V497Z" fill="black" mask="url(#path-1-inside-1_2123_15729)"/>
<path d="M11.833 508.558C10.8139 519.746 12.3642 531.584 7.90046 541.917C4.90117 548.87 -6.78909 558.31 -14.3493 558.194C-21.9094 558.078 -36.2305 547.918 -36.3705 541.952C-36.9247 517.547 -34.9306 493.148 -30.4066 468.98C-29.372 463.394 -15.0021 455.127 -7.46711 455.519C0.0678411 455.912 12.0268 464.876 13.3001 471.099C15.7256 483.142 12.0327 495.978 10.8911 508.509L11.833 508.558Z" fill="#1E2C4F"/>
<path d="M55.626 506.248C54.6068 517.436 56.1572 529.273 51.6934 539.606C48.6941 546.56 37.0039 555.999 29.4437 555.883C21.8836 555.767 7.56251 545.607 7.42245 539.642C6.86827 515.237 8.86241 490.837 13.3864 466.669C14.421 461.083 28.7909 452.816 36.3259 453.209C43.8608 453.602 55.8198 462.566 57.093 468.789C59.5185 480.831 55.8257 493.667 54.6841 506.199L55.626 506.248Z" fill="#1E2C4F"/>
<path d="M95.3447 506.248C94.3256 517.436 95.8759 529.273 91.4122 539.606C88.4129 546.56 76.7226 555.999 69.1625 555.883C61.6023 555.767 47.2813 545.607 47.1412 539.642C46.587 515.237 48.5812 490.837 53.1051 466.669C54.1398 461.083 68.5097 452.816 76.0446 453.209C83.5796 453.602 95.5386 462.566 96.8118 468.789C99.2373 480.831 95.5444 493.667 94.4028 506.199L95.3447 506.248Z" fill="#1E2C4F"/>
<path d="M135.063 506.248C134.044 517.436 135.595 529.273 131.131 539.606C128.132 546.56 116.441 555.999 108.881 555.883C101.321 555.767 87 545.607 86.8599 539.642C86.3058 515.237 88.2999 490.837 92.8239 466.669C93.8585 461.083 108.228 452.816 115.763 453.209C123.298 453.602 135.257 462.566 136.531 468.789C138.956 480.831 135.263 493.667 134.122 506.199L135.063 506.248Z" fill="#1E2C4F"/>
<path d="M174.782 506.248C173.763 517.436 175.313 529.273 170.85 539.606C167.85 546.56 156.16 555.999 148.6 555.883C141.04 555.767 126.719 545.607 126.579 539.642C126.025 515.237 128.019 490.837 132.543 466.669C133.577 461.083 147.947 452.816 155.482 453.209C163.017 453.602 174.976 462.566 176.249 468.789C178.675 480.831 174.982 493.667 173.84 506.199L174.782 506.248Z" fill="#1E2C4F"/>
<path d="M214.501 506.248C213.482 517.436 215.032 529.273 210.568 539.606C207.569 546.56 195.879 555.999 188.319 555.883C180.759 555.767 166.438 545.607 166.297 539.642C165.743 515.237 167.737 490.837 172.261 466.669C173.296 461.083 187.666 452.816 195.201 453.209C202.736 453.602 214.695 462.566 215.968 468.789C218.394 480.831 214.701 493.667 213.559 506.199L214.501 506.248Z" fill="#1E2C4F"/>
<path d="M254.22 506.248C253.201 517.436 254.751 529.273 250.287 539.606C247.288 546.56 235.598 555.999 228.037 555.883C220.477 555.767 206.156 545.607 206.016 539.642C205.462 515.237 207.456 490.837 211.98 466.669C213.015 461.083 227.385 452.816 234.92 453.209C242.455 453.602 254.414 462.566 255.687 468.789C258.112 480.831 254.419 493.667 253.278 506.199L254.22 506.248Z" fill="#1E2C4F"/>
<path d="M293.938 506.248C292.919 517.436 294.47 529.273 290.006 539.606C287.007 546.56 275.316 555.999 267.756 555.883C260.196 555.767 245.875 545.607 245.735 539.642C245.181 515.237 247.175 490.837 251.699 466.669C252.734 461.083 267.103 452.816 274.638 453.209C282.173 453.602 294.132 462.566 295.406 468.789C297.831 480.831 294.138 493.667 292.997 506.199L293.938 506.248Z" fill="#1E2C4F"/>
<path d="M333.657 506.248C332.638 517.436 334.188 529.273 329.725 539.606C326.725 546.56 315.035 555.999 307.475 555.883C299.915 555.767 285.594 545.607 285.454 539.642C284.9 515.237 286.894 490.837 291.418 466.669C292.452 461.083 306.822 452.816 314.357 453.209C321.892 453.602 333.851 462.566 335.124 468.789C337.55 480.831 333.857 493.667 332.715 506.199L333.657 506.248Z" fill="#1E2C4F"/>
<path d="M373.376 506.248C372.357 517.436 373.907 529.273 369.443 539.606C366.444 546.56 354.754 555.999 347.194 555.883C339.634 555.767 325.313 545.607 325.172 539.642C324.618 515.237 326.612 490.837 331.136 466.669C332.171 461.083 346.541 452.816 354.076 453.209C361.611 453.602 373.57 462.566 374.843 468.789C377.269 480.831 373.576 493.667 372.434 506.199L373.376 506.248Z" fill="#1E2C4F"/>
<path d="M413.095 506.248C412.076 517.436 413.626 529.273 409.162 539.606C406.163 546.56 394.473 555.999 386.912 555.883C379.352 555.767 365.031 545.607 364.891 539.642C364.337 515.237 366.331 490.837 370.855 466.669C371.89 461.083 386.26 452.816 393.795 453.209C401.33 453.602 413.289 462.566 414.562 468.789C416.987 480.831 413.294 493.667 412.153 506.199L413.095 506.248Z" fill="#1E2C4F"/>
<path d="M452.813 506.248C451.794 517.436 453.345 529.273 448.881 539.606C445.882 546.56 434.191 555.999 426.631 555.883C419.071 555.767 404.75 545.607 404.61 539.642C404.056 515.237 406.05 490.837 410.574 466.669C411.609 461.083 425.978 452.816 433.513 453.209C441.048 453.602 453.007 462.566 454.281 468.789C456.706 480.831 453.013 493.667 451.872 506.199L452.813 506.248Z" fill="#1E2C4F"/>
<path d="M492.532 506.248C491.513 517.436 493.063 529.273 488.6 539.606C485.6 546.56 473.91 555.999 466.35 555.883C458.79 555.767 444.469 545.607 444.329 539.642C443.775 515.237 445.769 490.837 450.293 466.669C451.327 461.083 465.697 452.816 473.232 453.209C480.767 453.602 492.726 462.566 493.999 468.789C496.425 480.831 492.732 493.667 491.59 506.199L492.532 506.248Z" fill="#1E2C4F"/>
<path d="M532.251 506.248C531.232 517.436 532.782 529.273 528.318 539.606C525.319 546.56 513.629 555.999 506.069 555.883C498.509 555.767 484.188 545.607 484.047 539.642C483.493 515.237 485.487 490.837 490.011 466.669C491.046 461.083 505.416 452.816 512.951 453.209C520.486 453.602 532.445 462.566 533.718 468.789C536.144 480.831 532.451 493.667 531.309 506.199L532.251 506.248Z" fill="#1E2C4F"/>
<path d="M571.97 506.248C570.951 517.436 572.501 529.273 568.037 539.606C565.038 546.56 553.348 555.999 545.787 555.883C538.227 555.767 523.906 545.607 523.766 539.642C523.212 515.237 525.206 490.837 529.73 466.669C530.765 461.083 545.135 452.816 552.67 453.209C560.205 453.602 572.164 462.566 573.437 468.789C575.862 480.831 572.169 493.667 571.028 506.199L571.97 506.248Z" fill="#1E2C4F"/>
<path d="M611.692 506.248C610.673 517.436 612.224 529.273 607.76 539.606C604.761 546.56 593.07 555.999 585.51 555.883C577.95 555.767 563.629 545.607 563.489 539.642C562.935 515.237 564.929 490.837 569.453 466.669C570.487 461.083 584.857 452.816 592.392 453.209C599.927 453.602 611.886 462.566 613.159 468.789C615.585 480.831 611.892 493.667 610.75 506.199L611.692 506.248Z" fill="#1E2C4F"/>
<path d="M651.411 506.248C650.392 517.436 651.942 529.273 647.479 539.606C644.479 546.56 632.789 555.999 625.229 555.883C617.669 555.767 603.348 545.607 603.208 539.642C602.653 515.237 604.648 490.837 609.172 466.669C610.206 461.083 624.576 452.816 632.111 453.209C639.646 453.602 651.605 462.566 652.878 468.789C655.304 480.831 651.611 493.667 650.469 506.199L651.411 506.248Z" fill="#1E2C4F"/>
<path d="M691.13 506.248C690.111 517.436 691.661 529.273 687.197 539.606C684.198 546.56 672.508 555.999 664.948 555.883C657.387 555.767 643.066 545.607 642.926 539.642C642.372 515.237 644.366 490.837 648.89 466.669C649.925 461.083 664.295 452.816 671.83 453.209C679.365 453.602 691.324 462.566 692.597 468.789C695.022 480.831 691.33 493.667 690.188 506.199L691.13 506.248Z" fill="#1E2C4F"/>
<path d="M730.849 506.248C729.829 517.436 731.38 529.273 726.916 539.606C723.917 546.56 712.227 555.999 704.666 555.883C697.106 555.767 682.785 545.607 682.645 539.642C682.091 515.237 684.085 490.837 688.609 466.669C689.644 461.083 704.014 452.816 711.549 453.209C719.083 453.602 731.042 462.566 732.316 468.789C734.741 480.831 731.048 493.667 729.907 506.199L730.849 506.248Z" fill="#1E2C4F"/>
<path d="M770.567 506.248C769.548 517.436 771.099 529.273 766.635 539.606C763.636 546.56 751.945 555.999 744.385 555.883C736.825 555.767 722.504 545.607 722.364 539.642C721.81 515.237 723.804 490.837 728.328 466.669C729.362 461.083 743.732 452.816 751.267 453.209C758.802 453.602 770.761 462.566 772.034 468.789C774.46 480.831 770.767 493.667 769.625 506.199L770.567 506.248Z" fill="#1E2C4F"/>
<path d="M810.286 506.248C809.267 517.436 810.817 529.273 806.354 539.606C803.354 546.56 791.664 555.999 784.104 555.883C776.544 555.767 762.223 545.607 762.083 539.642C761.528 515.237 763.523 490.837 768.047 466.669C769.081 461.083 783.451 452.816 790.986 453.209C798.521 453.602 810.48 462.566 811.753 468.789C814.179 480.831 810.486 493.667 809.344 506.199L810.286 506.248Z" fill="#1E2C4F"/>
<path d="M850.005 506.248C848.986 517.436 850.536 529.273 846.072 539.606C843.073 546.56 831.383 555.999 823.823 555.883C816.262 555.767 801.941 545.607 801.801 539.642C801.247 515.237 803.241 490.837 807.765 466.669C808.8 461.083 823.17 452.816 830.705 453.209C838.24 453.602 850.199 462.566 851.472 468.789C853.897 480.831 850.205 493.667 849.063 506.199L850.005 506.248Z" fill="#1E2C4F"/>
<path d="M889.724 506.248C888.704 517.436 890.255 529.273 885.791 539.606C882.792 546.56 871.102 555.999 863.541 555.883C855.981 555.767 841.66 545.607 841.52 539.642C840.966 515.237 842.96 490.837 847.484 466.669C848.519 461.083 862.889 452.816 870.424 453.209C877.958 453.602 889.917 462.566 891.191 468.789C893.616 480.831 889.923 493.667 888.782 506.199L889.724 506.248Z" fill="#1E2C4F"/>
<path d="M929.442 506.248C928.423 517.436 929.974 529.273 925.51 539.606C922.511 546.56 910.82 555.999 903.26 555.883C895.7 555.767 881.379 545.607 881.239 539.642C880.685 515.237 882.679 490.837 887.203 466.669C888.237 461.083 902.607 452.816 910.142 453.209C917.677 453.602 929.636 462.566 930.909 468.789C933.335 480.831 929.642 493.667 928.5 506.199L929.442 506.248Z" fill="#1E2C4F"/>
<path d="M969.161 506.248C968.142 517.436 969.692 529.273 965.229 539.606C962.229 546.56 950.539 555.999 942.979 555.883C935.419 555.767 921.098 545.607 920.958 539.642C920.403 515.237 922.398 490.837 926.922 466.669C927.956 461.083 942.326 452.816 949.861 453.209C957.396 453.602 969.355 462.566 970.628 468.789C973.054 480.831 969.361 493.667 968.219 506.199L969.161 506.248Z" fill="#1E2C4F"/>
<path d="M1008.88 506.248C1007.86 517.436 1009.41 529.273 1004.95 539.606C1001.95 546.56 990.258 555.999 982.698 555.883C975.137 555.767 960.816 545.607 960.676 539.642C960.122 515.237 962.116 490.837 966.64 466.669C967.675 461.083 982.045 452.816 989.58 453.209C997.115 453.602 1009.07 462.566 1010.35 468.789C1012.77 480.831 1009.08 493.667 1007.94 506.199L1008.88 506.248Z" fill="#1E2C4F"/>
<path d="M1048.6 506.248C1047.58 517.436 1049.13 529.273 1044.67 539.606C1041.67 546.56 1029.98 555.999 1022.42 555.883C1014.86 555.767 1000.54 545.607 1000.4 539.642C999.841 515.237 1001.84 490.837 1006.36 466.669C1007.39 461.083 1021.76 452.816 1029.3 453.209C1036.83 453.602 1048.79 462.566 1050.07 468.789C1052.49 480.831 1048.8 493.667 1047.66 506.199L1048.6 506.248Z" fill="#1E2C4F"/>
<path d="M1088.32 506.248C1087.3 517.436 1088.85 529.273 1084.38 539.606C1081.39 546.56 1069.7 555.999 1062.14 555.883C1054.57 555.767 1040.25 545.607 1040.11 539.642C1039.56 515.237 1041.55 490.837 1046.08 466.669C1047.11 461.083 1061.48 452.816 1069.02 453.209C1076.55 453.602 1088.51 462.566 1089.78 468.789C1092.21 480.831 1088.52 493.667 1087.38 506.199L1088.32 506.248Z" fill="#1E2C4F"/>
<path d="M1128.04 506.248C1127.02 517.436 1128.57 529.273 1124.11 539.606C1121.11 546.56 1109.42 555.999 1101.86 555.883C1094.3 555.767 1079.98 545.607 1079.84 539.642C1079.28 515.237 1081.28 490.837 1085.8 466.669C1086.84 461.083 1101.2 452.816 1108.74 453.209C1116.27 453.602 1128.23 462.566 1129.51 468.789C1131.93 480.831 1128.24 493.667 1127.1 506.199L1128.04 506.248Z" fill="#1E2C4F"/>
<path d="M1167.76 506.248C1166.74 517.436 1168.29 529.273 1163.83 539.606C1160.83 546.56 1149.14 555.999 1141.58 555.883C1134.02 555.767 1119.7 545.607 1119.56 539.642C1119 515.237 1121 490.837 1125.52 466.669C1126.55 461.083 1140.92 452.816 1148.46 453.209C1155.99 453.602 1167.95 462.566 1169.23 468.789C1171.65 480.831 1167.96 493.667 1166.82 506.199L1167.76 506.248Z" fill="#1E2C4F"/>
<path d="M1207.48 506.248C1206.46 517.436 1208.01 529.273 1203.54 539.606C1200.55 546.56 1188.86 555.999 1181.3 555.883C1173.74 555.767 1159.41 545.607 1159.27 539.642C1158.72 515.237 1160.71 490.837 1165.24 466.669C1166.27 461.083 1180.64 452.816 1188.18 453.209C1195.71 453.602 1207.67 462.566 1208.94 468.789C1211.37 480.831 1207.68 493.667 1206.54 506.199L1207.48 506.248Z" fill="#1E2C4F"/>
<path d="M1247.2 506.248C1246.18 517.436 1247.73 529.273 1243.26 539.606C1240.26 546.56 1228.57 555.999 1221.01 555.883C1213.45 555.767 1199.13 545.607 1198.99 539.642C1198.44 515.237 1200.43 490.837 1204.96 466.669C1205.99 461.083 1220.36 452.816 1227.9 453.209C1235.43 453.602 1247.39 462.566 1248.66 468.789C1251.09 480.831 1247.4 493.667 1246.25 506.199L1247.2 506.248Z" fill="#1E2C4F"/>
<path d="M1286.92 506.248C1285.9 517.436 1287.45 529.273 1282.98 539.606C1279.98 546.56 1268.29 555.999 1260.73 555.883C1253.17 555.767 1238.85 545.607 1238.71 539.642C1238.16 515.237 1240.15 490.837 1244.68 466.669C1245.71 461.083 1260.08 452.816 1267.61 453.209C1275.15 453.602 1287.11 462.566 1288.38 468.789C1290.81 480.831 1287.11 493.667 1285.97 506.199L1286.92 506.248Z" fill="#1E2C4F"/>
<path d="M1326.63 506.248C1325.61 517.436 1327.16 529.273 1322.7 539.606C1319.7 546.56 1308.01 555.999 1300.45 555.883C1292.89 555.767 1278.57 545.607 1278.43 539.642C1277.87 515.237 1279.87 490.837 1284.39 466.669C1285.42 461.083 1299.79 452.816 1307.33 453.209C1314.86 453.602 1326.82 462.566 1328.1 468.789C1330.52 480.831 1326.83 493.667 1325.69 506.199L1326.63 506.248Z" fill="#1E2C4F"/>
<path d="M1366.35 506.248C1365.33 517.436 1366.88 529.273 1362.42 539.606C1359.42 546.56 1347.73 555.999 1340.17 555.883C1332.61 555.767 1318.29 545.607 1318.15 539.642C1317.59 515.237 1319.59 490.837 1324.11 466.669C1325.15 461.083 1339.52 452.816 1347.05 453.209C1354.59 453.602 1366.55 462.566 1367.82 468.789C1370.25 480.831 1366.55 493.667 1365.41 506.199L1366.35 506.248Z" fill="#1E2C4F"/>
<path d="M1406.07 506.248C1405.05 517.436 1406.6 529.273 1402.14 539.606C1399.14 546.56 1387.45 555.999 1379.89 555.883C1372.33 555.767 1358.01 545.607 1357.87 539.642C1357.31 515.237 1359.31 490.837 1363.83 466.669C1364.87 461.083 1379.24 452.816 1386.77 453.209C1394.31 453.602 1406.27 462.566 1407.54 468.789C1409.96 480.831 1406.27 493.667 1405.13 506.199L1406.07 506.248Z" fill="#1E2C4F"/>
<path d="M1445.79 506.248C1444.77 517.436 1446.32 529.273 1441.86 539.606C1438.86 546.56 1427.17 555.999 1419.61 555.883C1412.05 555.767 1397.73 545.607 1397.59 539.642C1397.03 515.237 1399.03 490.837 1403.55 466.669C1404.59 461.083 1418.95 452.816 1426.49 453.209C1434.02 453.602 1445.98 462.566 1447.26 468.789C1449.68 480.831 1445.99 493.667 1444.85 506.199L1445.79 506.248Z" fill="#1E2C4F"/>
<path d="M34.0332 56.5584C33.0298 67.7461 34.5563 79.5838 30.1613 89.9166C27.2083 96.8701 15.6983 106.31 8.25474 106.194C0.81117 106.078 -13.289 95.9176 -13.4269 89.9523C-13.9726 65.5471 -12.0092 41.1475 -7.55497 16.98C-6.53629 11.3937 7.612 3.12655 15.0308 3.51932C22.4495 3.91209 34.2241 12.8763 35.4777 19.0992C37.8658 31.1417 34.2298 43.9776 33.1059 56.5093L34.0332 56.5584Z" fill="#1E2C4F"/>
<path d="M77.1504 54.2479C76.147 65.4355 77.6734 77.2732 73.2785 87.6061C70.3255 94.5596 58.8155 103.999 51.3719 103.883C43.9284 103.767 29.8282 93.607 29.6903 87.6417C29.1446 63.2366 31.108 38.837 35.5622 14.6694C36.5809 9.08315 50.7292 0.816 58.1479 1.20877C65.5667 1.60154 77.3413 10.5657 78.5949 16.7887C80.9829 28.8311 77.347 41.6671 76.2231 54.1988L77.1504 54.2479Z" fill="#1E2C4F"/>
<path d="M116.256 54.2479C115.252 65.4355 116.779 77.2732 112.384 87.6061C109.431 94.5596 97.921 103.999 90.4774 103.883C83.0338 103.767 68.9336 93.607 68.7957 87.6417C68.2501 63.2366 70.2135 38.837 74.6677 14.6694C75.6864 9.08315 89.8347 0.816 97.2534 1.20877C104.672 1.60154 116.447 10.5657 117.7 16.7887C120.088 28.8311 116.453 41.6671 115.329 54.1988L116.256 54.2479Z" fill="#1E2C4F"/>
<path d="M155.361 54.2479C154.358 65.4355 155.884 77.2732 151.489 87.6061C148.536 94.5596 137.026 103.999 129.583 103.883C122.139 103.767 108.039 93.607 107.901 87.6417C107.356 63.2366 109.319 38.837 113.773 14.6694C114.792 9.08315 128.94 0.816 136.359 1.20877C143.778 1.60154 155.552 10.5657 156.806 16.7887C159.194 28.8311 155.558 41.6671 154.434 54.1988L155.361 54.2479Z" fill="#1E2C4F"/>
<path d="M194.471 54.2479C193.467 65.4355 194.994 77.2732 190.599 87.6061C187.646 94.5596 176.136 103.999 168.692 103.883C161.249 103.767 147.148 93.607 147.011 87.6417C146.465 63.2366 148.428 38.837 152.883 14.6694C153.901 9.08315 168.05 0.816 175.468 1.20877C182.887 1.60154 194.662 10.5657 195.915 16.7887C198.303 28.8311 194.667 41.6671 193.543 54.1988L194.471 54.2479Z" fill="#1E2C4F"/>
<path d="M233.576 54.2479C232.573 65.4355 234.099 77.2732 229.704 87.6061C226.751 94.5596 215.241 103.999 207.798 103.883C200.354 103.767 186.254 93.607 186.116 87.6417C185.57 63.2366 187.534 38.837 191.988 14.6694C193.007 9.08315 207.155 0.816 214.574 1.20877C221.992 1.60154 233.767 10.5657 235.021 16.7887C237.409 28.8311 233.773 41.6671 232.649 54.1988L233.576 54.2479Z" fill="#1E2C4F"/>
<path d="M272.682 54.2479C271.678 65.4355 273.205 77.2732 268.81 87.6061C265.857 94.5596 254.347 103.999 246.903 103.883C239.46 103.767 225.359 93.607 225.222 87.6417C224.676 63.2366 226.639 38.837 231.093 14.6694C232.112 9.08315 246.26 0.816 253.679 1.20877C261.098 1.60154 272.873 10.5657 274.126 16.7887C276.514 28.8311 272.878 41.6671 271.754 54.1988L272.682 54.2479Z" fill="#1E2C4F"/>
<path d="M311.787 54.2479C310.784 65.4355 312.31 77.2732 307.915 87.6061C304.962 94.5596 293.452 103.999 286.009 103.883C278.565 103.767 264.465 93.607 264.327 87.6417C263.781 63.2366 265.745 38.837 270.199 14.6694C271.218 9.08315 285.366 0.816 292.785 1.20877C300.203 1.60154 311.978 10.5657 313.232 16.7887C315.62 28.8311 311.984 41.6671 310.86 54.1988L311.787 54.2479Z" fill="#1E2C4F"/>
<path d="M350.896 54.2479C349.893 65.4355 351.42 77.2732 347.025 87.6061C344.072 94.5596 332.562 103.999 325.118 103.883C317.674 103.767 303.574 93.607 303.436 87.6417C302.891 63.2366 304.854 38.837 309.308 14.6694C310.327 9.08315 324.475 0.816 331.894 1.20877C339.313 1.60154 351.087 10.5657 352.341 16.7887C354.729 28.8311 351.093 41.6671 349.969 54.1988L350.896 54.2479Z" fill="#1E2C4F"/>
<path d="M390.002 54.2479C388.999 65.4355 390.525 77.2732 386.13 87.6061C383.177 94.5596 371.667 103.999 364.223 103.883C356.78 103.767 342.68 93.607 342.542 87.6417C341.996 63.2366 343.96 38.837 348.414 14.6694C349.432 9.08315 363.581 0.816 371 1.20877C378.418 1.60154 390.193 10.5657 391.446 16.7887C393.835 28.8311 390.199 41.6671 389.075 54.1988L390.002 54.2479Z" fill="#1E2C4F"/>
<path d="M429.107 54.2479C428.104 65.4355 429.63 77.2732 425.236 87.6061C422.283 94.5596 410.773 103.999 403.329 103.883C395.885 103.767 381.785 93.607 381.647 87.6417C381.102 63.2366 383.065 38.837 387.519 14.6694C388.538 9.08315 402.686 0.816 410.105 1.20877C417.524 1.60154 429.298 10.5657 430.552 16.7887C432.94 28.8311 429.304 41.6671 428.18 54.1988L429.107 54.2479Z" fill="#1E2C4F"/>
<path d="M468.213 54.2479C467.209 65.4355 468.736 77.2732 464.341 87.6061C461.388 94.5596 449.878 103.999 442.434 103.883C434.991 103.767 420.891 93.607 420.753 87.6417C420.207 63.2366 422.171 38.837 426.625 14.6694C427.643 9.08315 441.792 0.816 449.21 1.20877C456.629 1.60154 468.404 10.5657 469.657 16.7887C472.045 28.8311 468.41 41.6671 467.286 54.1988L468.213 54.2479Z" fill="#1E2C4F"/>
<path d="M507.322 54.2479C506.319 65.4355 507.845 77.2732 503.45 87.6061C500.497 94.5596 488.987 103.999 481.544 103.883C474.1 103.767 460 93.607 459.862 87.6417C459.316 63.2366 461.28 38.837 465.734 14.6694C466.753 9.08315 480.901 0.816 488.32 1.20877C495.739 1.60154 507.513 10.5657 508.767 16.7887C511.155 28.8311 507.519 41.6671 506.395 54.1988L507.322 54.2479Z" fill="#1E2C4F"/>
<path d="M546.428 54.2479C545.424 65.4355 546.951 77.2732 542.556 87.6061C539.603 94.5596 528.093 103.999 520.649 103.883C513.206 103.767 499.106 93.607 498.968 87.6417C498.422 63.2366 500.385 38.837 504.84 14.6694C505.858 9.08315 520.007 0.816 527.425 1.20877C534.844 1.60154 546.619 10.5657 547.872 16.7887C550.26 28.8311 546.624 41.6671 545.5 54.1988L546.428 54.2479Z" fill="#1E2C4F"/>
<path d="M585.533 54.2479C584.53 65.4355 586.056 77.2732 581.661 87.6061C578.708 94.5596 567.198 103.999 559.755 103.883C552.311 103.767 538.211 93.607 538.073 87.6417C537.527 63.2366 539.491 38.837 543.945 14.6694C544.964 9.08315 559.112 0.816 566.531 1.20877C573.95 1.60154 585.724 10.5657 586.978 16.7887C589.366 28.8311 585.73 41.6671 584.606 54.1988L585.533 54.2479Z" fill="#1E2C4F"/>
<path d="M624.643 54.2479C623.639 65.4355 625.166 77.2732 620.771 87.6061C617.818 94.5596 606.308 103.999 598.864 103.883C591.421 103.767 577.32 93.607 577.182 87.6417C576.637 63.2366 578.6 38.837 583.054 14.6694C584.073 9.08315 598.221 0.816 605.64 1.20877C613.059 1.60154 624.833 10.5657 626.087 16.7887C628.475 28.8311 624.839 41.6671 623.715 54.1988L624.643 54.2479Z" fill="#1E2C4F"/>
<path d="M663.748 54.2479C662.745 65.4355 664.271 77.2732 659.876 87.6061C656.923 94.5596 645.413 103.999 637.97 103.883C630.526 103.767 616.426 93.607 616.288 87.6417C615.742 63.2366 617.706 38.837 622.16 14.6694C623.179 9.08315 637.327 0.816 644.746 1.20877C652.164 1.60154 663.939 10.5657 665.193 16.7887C667.581 28.8311 663.945 41.6671 662.821 54.1988L663.748 54.2479Z" fill="#1E2C4F"/>
<path d="M702.854 54.2479C701.85 65.4355 703.377 77.2732 698.982 87.6061C696.029 94.5596 684.519 103.999 677.075 103.883C669.631 103.767 655.531 93.607 655.393 87.6417C654.848 63.2366 656.811 38.837 661.265 14.6694C662.284 9.08315 676.432 0.816 683.851 1.20877C691.27 1.60154 703.044 10.5657 704.298 16.7887C706.686 28.8311 703.05 41.6671 701.926 54.1988L702.854 54.2479Z" fill="#1E2C4F"/>
<path d="M741.959 54.2479C740.956 65.4355 742.482 77.2732 738.087 87.6061C735.134 94.5596 723.624 103.999 716.181 103.883C708.737 103.767 694.637 93.607 694.499 87.6417C693.953 63.2366 695.917 38.837 700.371 14.6694C701.389 9.08315 715.538 0.816 722.957 1.20877C730.375 1.60154 742.15 10.5657 743.403 16.7887C745.792 28.8311 742.156 41.6671 741.032 54.1988L741.959 54.2479Z" fill="#1E2C4F"/>
<path d="M781.068 54.2479C780.065 65.4355 781.591 77.2732 777.196 87.6061C774.243 94.5596 762.733 103.999 755.29 103.883C747.846 103.767 733.746 93.607 733.608 87.6417C733.063 63.2366 735.026 38.837 739.48 14.6694C740.499 9.08315 754.647 0.816 762.066 1.20877C769.485 1.60154 781.259 10.5657 782.513 16.7887C784.901 28.8311 781.265 41.6671 780.141 54.1988L781.068 54.2479Z" fill="#1E2C4F"/>
<path d="M820.174 54.2479C819.17 65.4355 820.697 77.2732 816.302 87.6061C813.349 94.5596 801.839 103.999 794.395 103.883C786.952 103.767 772.852 93.607 772.714 87.6417C772.168 63.2366 774.131 38.837 778.586 14.6694C779.604 9.08315 793.753 0.816 801.171 1.20877C808.59 1.60154 820.365 10.5657 821.618 16.7887C824.006 28.8311 820.37 41.6671 819.246 54.1988L820.174 54.2479Z" fill="#1E2C4F"/>
<path d="M859.279 54.2479C858.276 65.4355 859.802 77.2732 855.407 87.6061C852.454 94.5596 840.944 103.999 833.501 103.883C826.057 103.767 811.957 93.607 811.819 87.6417C811.274 63.2366 813.237 38.837 817.691 14.6694C818.71 9.08315 832.858 0.816 840.277 1.20877C847.696 1.60154 859.47 10.5657 860.724 16.7887C863.112 28.8311 859.476 41.6671 858.352 54.1988L859.279 54.2479Z" fill="#1E2C4F"/>
<path d="M898.385 54.2479C897.381 65.4355 898.908 77.2732 894.513 87.6061C891.56 94.5596 880.05 103.999 872.606 103.883C865.163 103.767 851.063 93.607 850.925 87.6417C850.379 63.2366 852.342 38.837 856.797 14.6694C857.815 9.08315 871.964 0.816 879.382 1.20877C886.801 1.60154 898.576 10.5657 899.829 16.7887C902.217 28.8311 898.581 41.6671 897.457 54.1988L898.385 54.2479Z" fill="#1E2C4F"/>
<path d="M937.494 54.2479C936.491 65.4355 938.017 77.2732 933.622 87.6061C930.669 94.5596 919.159 103.999 911.716 103.883C904.272 103.767 890.172 93.607 890.034 87.6417C889.488 63.2366 891.452 38.837 895.906 14.6694C896.925 9.08315 911.073 0.816 918.492 1.20877C925.91 1.60154 937.685 10.5657 938.939 16.7887C941.327 28.8311 937.691 41.6671 936.567 54.1988L937.494 54.2479Z" fill="#1E2C4F"/>
<path d="M976.6 54.2479C975.596 65.4355 977.123 77.2732 972.728 87.6061C969.775 94.5596 958.265 103.999 950.821 103.883C943.378 103.767 929.277 93.607 929.139 87.6417C928.594 63.2366 930.557 38.837 935.011 14.6694C936.03 9.08315 950.178 0.816 957.597 1.20877C965.016 1.60154 976.79 10.5657 978.044 16.7887C980.432 28.8311 976.796 41.6671 975.672 54.1988L976.6 54.2479Z" fill="#1E2C4F"/>
<path d="M1015.71 54.2479C1014.7 65.4355 1016.23 77.2732 1011.83 87.6061C1008.88 94.5596 997.37 103.999 989.927 103.883C982.483 103.767 968.383 93.607 968.245 87.6417C967.699 63.2366 969.663 38.837 974.117 14.6694C975.136 9.08315 989.284 0.816 996.703 1.20877C1004.12 1.60154 1015.9 10.5657 1017.15 16.7887C1019.54 28.8311 1015.9 41.6671 1014.78 54.1988L1015.71 54.2479Z" fill="#1E2C4F"/>
<path d="M1054.81 54.2479C1053.81 65.4355 1055.33 77.2732 1050.94 87.6061C1047.99 94.5596 1036.48 103.999 1029.03 103.883C1021.59 103.767 1007.49 93.607 1007.35 87.6417C1006.8 63.2366 1008.77 38.837 1013.22 14.6694C1014.24 9.08315 1028.39 0.816 1035.81 1.20877C1043.23 1.60154 1055 10.5657 1056.26 16.7887C1058.64 28.8311 1055.01 41.6671 1053.88 54.1988L1054.81 54.2479Z" fill="#1E2C4F"/>
<path d="M1093.92 54.2479C1092.92 65.4355 1094.44 77.2732 1090.05 87.6061C1087.1 94.5596 1075.59 103.999 1068.14 103.883C1060.7 103.767 1046.6 93.607 1046.46 87.6417C1045.91 63.2366 1047.88 38.837 1052.33 14.6694C1053.35 9.08315 1067.5 0.816 1074.92 1.20877C1082.34 1.60154 1094.11 10.5657 1095.36 16.7887C1097.75 28.8311 1094.12 41.6671 1092.99 54.1988L1093.92 54.2479Z" fill="#1E2C4F"/>
<path d="M1133.03 54.2479C1132.02 65.4355 1133.55 77.2732 1129.15 87.6061C1126.2 94.5596 1114.69 103.999 1107.25 103.883C1099.8 103.767 1085.7 93.607 1085.57 87.6417C1085.02 63.2366 1086.98 38.837 1091.44 14.6694C1092.46 9.08315 1106.6 0.816 1114.02 1.20877C1121.44 1.60154 1133.22 10.5657 1134.47 16.7887C1136.86 28.8311 1133.22 41.6671 1132.1 54.1988L1133.03 54.2479Z" fill="#1E2C4F"/>
<path d="M1172.13 54.2479C1171.13 65.4355 1172.65 77.2732 1168.26 87.6061C1165.31 94.5596 1153.8 103.999 1146.35 103.883C1138.91 103.767 1124.81 93.607 1124.67 87.6417C1124.13 63.2366 1126.09 38.837 1130.54 14.6694C1131.56 9.08315 1145.71 0.816 1153.13 1.20877C1160.55 1.60154 1172.32 10.5657 1173.58 16.7887C1175.96 28.8311 1172.33 41.6671 1171.2 54.1988L1172.13 54.2479Z" fill="#1E2C4F"/>
<path d="M1211.24 54.2479C1210.24 65.4355 1211.76 77.2732 1207.37 87.6061C1204.42 94.5596 1192.91 103.999 1185.46 103.883C1178.02 103.767 1163.92 93.607 1163.78 87.6417C1163.23 63.2366 1165.2 38.837 1169.65 14.6694C1170.67 9.08315 1184.82 0.816 1192.24 1.20877C1199.66 1.60154 1211.43 10.5657 1212.68 16.7887C1215.07 28.8311 1211.44 41.6671 1210.31 54.1988L1211.24 54.2479Z" fill="#1E2C4F"/>
<path d="M1250.35 54.2479C1249.34 65.4355 1250.87 77.2732 1246.47 87.6061C1243.52 94.5596 1232.01 103.999 1224.57 103.883C1217.12 103.767 1203.02 93.607 1202.89 87.6417C1202.34 63.2366 1204.3 38.837 1208.76 14.6694C1209.78 9.08315 1223.92 0.816 1231.34 1.20877C1238.76 1.60154 1250.54 10.5657 1251.79 16.7887C1254.18 28.8311 1250.54 41.6671 1249.42 54.1988L1250.35 54.2479Z" fill="#1E2C4F"/>
<path d="M1289.45 54.2479C1288.45 65.4355 1289.97 77.2732 1285.58 87.6061C1282.63 94.5596 1271.12 103.999 1263.67 103.883C1256.23 103.767 1242.13 93.607 1241.99 87.6417C1241.45 63.2366 1243.41 38.837 1247.86 14.6694C1248.88 9.08315 1263.03 0.816 1270.45 1.20877C1277.87 1.60154 1289.64 10.5657 1290.9 16.7887C1293.28 28.8311 1289.65 41.6671 1288.52 54.1988L1289.45 54.2479Z" fill="#1E2C4F"/>
<path d="M1328.56 54.2479C1327.55 65.4355 1329.08 77.2732 1324.68 87.6061C1321.73 94.5596 1310.22 103.999 1302.78 103.883C1295.33 103.767 1281.23 93.607 1281.1 87.6417C1280.55 63.2366 1282.51 38.837 1286.97 14.6694C1287.99 9.08315 1302.14 0.816 1309.55 1.20877C1316.97 1.60154 1328.75 10.5657 1330 16.7887C1332.39 28.8311 1328.75 41.6671 1327.63 54.1988L1328.56 54.2479Z" fill="#1E2C4F"/>
<path d="M1367.67 54.2479C1366.66 65.4355 1368.19 77.2732 1363.79 87.6061C1360.84 94.5596 1349.33 103.999 1341.89 103.883C1334.44 103.767 1320.34 93.607 1320.21 87.6417C1319.66 63.2366 1321.62 38.837 1326.08 14.6694C1327.1 9.08315 1341.24 0.816 1348.66 1.20877C1356.08 1.60154 1367.86 10.5657 1369.11 16.7887C1371.5 28.8311 1367.86 41.6671 1366.74 54.1988L1367.67 54.2479Z" fill="#1E2C4F"/>
<path d="M1406.77 54.2479C1405.77 65.4355 1407.29 77.2732 1402.9 87.6061C1399.95 94.5596 1388.44 103.999 1380.99 103.883C1373.55 103.767 1359.45 93.607 1359.31 87.6417C1358.77 63.2366 1360.73 38.837 1365.18 14.6694C1366.2 9.08315 1380.35 0.816 1387.77 1.20877C1395.19 1.60154 1406.96 10.5657 1408.22 16.7887C1410.6 28.8311 1406.97 41.6671 1405.84 54.1988L1406.77 54.2479Z" fill="#1E2C4F"/>
<path d="M1445.88 54.2479C1444.87 65.4355 1446.4 77.2732 1442.01 87.6061C1439.05 94.5596 1427.54 103.999 1420.1 103.883C1412.65 103.767 1398.55 93.607 1398.42 87.6417C1397.87 63.2366 1399.83 38.837 1404.29 14.6694C1405.31 9.08315 1419.46 0.816 1426.87 1.20877C1434.29 1.60154 1446.07 10.5657 1447.32 16.7887C1449.71 28.8311 1446.07 41.6671 1444.95 54.1988L1445.88 54.2479Z" fill="#1E2C4F"/>
<defs>
<clipPath id="clip0_2123_15729">
<path d="M0 54H1454V499H0V54Z" fill="white"/>
</clipPath>
<clipPath id="clip1_2123_15729">
<rect width="429" height="421" fill="white" transform="translate(-97 100.585) rotate(-23.4303)"/>
</clipPath>
<clipPath id="clip2_2123_15729">
<rect width="429" height="421" fill="white" transform="translate(103 394.585) rotate(-23.4303)"/>
</clipPath>
<clipPath id="clip3_2123_15729">
<rect width="429" height="421" fill="white" transform="translate(401 175.585) rotate(-23.4303)"/>
</clipPath>
<clipPath id="clip4_2123_15729">
<rect width="429" height="421" fill="white" transform="translate(746 95.585) rotate(-23.4303)"/>
</clipPath>
<clipPath id="clip5_2123_15729">
<rect width="429" height="421" fill="white" transform="translate(986 384.585) rotate(-23.4303)"/>
</clipPath>
<clipPath id="clip6_2123_15729">
<rect width="429" height="421" fill="white" transform="translate(1132 -14.8947) rotate(-26.752)"/>
</clipPath>
<clipPath id="clip7_2123_15729">
<rect width="429" height="421" fill="white" transform="translate(185 -109.415) rotate(-23.4303)"/>
</clipPath>
</defs>
</svg>
