<svg width="1440" height="115" viewBox="0 0 1440 115" fill="none" xmlns="http://www.w3.org/2000/svg">
<g filter="url(#filter0_d_1468_9189)">
<path d="M25.831 56.5584C24.8119 67.7461 26.3623 79.5838 21.8985 89.9166C18.8992 96.8702 7.20895 106.31 -0.351207 106.194C-7.91136 106.078 -22.2324 95.9176 -22.3725 89.9523C-22.9267 65.5472 -20.9325 41.1476 -16.4085 16.98C-15.3739 11.3937 -1.00401 3.12655 6.53094 3.51932C14.0659 3.91209 26.0249 12.8763 27.2981 19.0992C29.7236 31.1417 26.0307 43.9776 24.8892 56.5093L25.831 56.5584Z" fill="#1E2C4F"/>
<path d="M69.624 54.2479C68.6049 65.4355 70.1552 77.2732 65.6915 87.6061C62.6922 94.5596 51.0019 103.999 43.4418 103.883C35.8816 103.767 21.5606 93.607 21.4205 87.6417C20.8663 63.2366 22.8605 38.837 27.3844 14.6695C28.4191 9.08315 42.789 0.816 50.3239 1.20877C57.8589 1.60154 69.8179 10.5657 71.0911 16.7887C73.5166 28.8311 69.8237 41.6671 68.6821 54.1988L69.624 54.2479Z" fill="#1E2C4F"/>
<path d="M109.343 54.2479C108.324 65.4355 109.874 77.2732 105.41 87.6061C102.411 94.5596 90.7207 103.999 83.1605 103.883C75.6004 103.767 61.2793 93.607 61.1392 87.6417C60.5851 63.2366 62.5792 38.837 67.1032 14.6695C68.1378 9.08315 82.5077 0.816 90.0427 1.20877C97.5776 1.60154 109.537 10.5657 110.81 16.7887C113.235 28.8311 109.542 41.6671 108.401 54.1988L109.343 54.2479Z" fill="#1E2C4F"/>
<path d="M149.062 54.2479C148.042 65.4355 149.593 77.2732 145.129 87.6061C142.13 94.5596 130.439 103.999 122.879 103.883C115.319 103.767 100.998 93.607 100.858 87.6417C100.304 63.2366 102.298 38.837 106.822 14.6695C107.857 9.08315 122.226 0.816 129.761 1.20877C137.296 1.60154 149.255 10.5657 150.529 16.7887C152.954 28.8311 149.261 41.6671 148.12 54.1988L149.062 54.2479Z" fill="#1E2C4F"/>
<path d="M188.78 54.2479C187.761 65.4355 189.311 77.2732 184.848 87.6061C181.848 94.5596 170.158 103.999 162.598 103.883C155.038 103.767 140.717 93.607 140.577 87.6417C140.023 63.2366 142.017 38.837 146.541 14.6695C147.575 9.08315 161.945 0.816 169.48 1.20877C177.015 1.60154 188.974 10.5657 190.247 16.7887C192.673 28.8311 188.98 41.6671 187.838 54.1988L188.78 54.2479Z" fill="#1E2C4F"/>
<path d="M228.499 54.2479C227.48 65.4355 229.03 77.2732 224.566 87.6061C221.567 94.5596 209.877 103.999 202.317 103.883C194.757 103.767 180.436 93.607 180.295 87.6417C179.741 63.2366 181.735 38.837 186.259 14.6695C187.294 9.08315 201.664 0.816 209.199 1.20877C216.734 1.60154 228.693 10.5657 229.966 16.7887C232.392 28.8311 228.699 41.6671 227.557 54.1988L228.499 54.2479Z" fill="#1E2C4F"/>
<path d="M268.218 54.2479C267.199 65.4355 268.749 77.2732 264.285 87.6061C261.286 94.5596 249.596 103.999 242.036 103.883C234.475 103.767 220.154 93.607 220.014 87.6417C219.46 63.2366 221.454 38.837 225.978 14.6695C227.013 9.08315 241.383 0.816 248.918 1.20877C256.453 1.60154 268.412 10.5657 269.685 16.7887C272.11 28.8311 268.417 41.6671 267.276 54.1988L268.218 54.2479Z" fill="#1E2C4F"/>
<path d="M307.937 54.2479C306.917 65.4355 308.468 77.2732 304.004 87.6061C301.005 94.5596 289.314 103.999 281.754 103.883C274.194 103.767 259.873 93.607 259.733 87.6417C259.179 63.2366 261.173 38.837 265.697 14.6695C266.732 9.08315 281.101 0.816 288.636 1.20877C296.171 1.60154 308.13 10.5657 309.404 16.7887C311.829 28.8311 308.136 41.6671 306.995 54.1988L307.937 54.2479Z" fill="#1E2C4F"/>
<path d="M347.655 54.2479C346.636 65.4355 348.186 77.2732 343.723 87.6061C340.723 94.5596 329.033 103.999 321.473 103.883C313.913 103.767 299.592 93.607 299.452 87.6417C298.898 63.2366 300.892 38.837 305.416 14.6695C306.45 9.08315 320.82 0.816 328.355 1.20877C335.89 1.60154 347.849 10.5657 349.122 16.7887C351.548 28.8311 347.855 41.6671 346.713 54.1988L347.655 54.2479Z" fill="#1E2C4F"/>
<path d="M387.374 54.2479C386.355 65.4355 387.905 77.2732 383.441 87.6061C380.442 94.5596 368.752 103.999 361.192 103.883C353.632 103.767 339.311 93.607 339.17 87.6417C338.616 63.2366 340.61 38.837 345.134 14.6695C346.169 9.08315 360.539 0.816 368.074 1.20877C375.609 1.60154 387.568 10.5657 388.841 16.7887C391.267 28.8311 387.574 41.6671 386.432 54.1988L387.374 54.2479Z" fill="#1E2C4F"/>
<path d="M427.093 54.2479C426.074 65.4355 427.624 77.2732 423.16 87.6061C420.161 94.5596 408.471 103.999 400.911 103.883C393.35 103.767 379.029 93.607 378.889 87.6417C378.335 63.2366 380.329 38.837 384.853 14.6695C385.888 9.08315 400.258 0.816 407.793 1.20877C415.328 1.60154 427.287 10.5657 428.56 16.7887C430.985 28.8311 427.292 41.6671 426.151 54.1988L427.093 54.2479Z" fill="#1E2C4F"/>
<path d="M466.812 54.2479C465.792 65.4355 467.343 77.2732 462.879 87.6061C459.88 94.5596 448.189 103.999 440.629 103.883C433.069 103.767 418.748 93.607 418.608 87.6417C418.054 63.2366 420.048 38.837 424.572 14.6695C425.607 9.08315 439.976 0.816 447.511 1.20877C455.046 1.60154 467.005 10.5657 468.279 16.7887C470.704 28.8311 467.011 41.6671 465.87 54.1988L466.812 54.2479Z" fill="#1E2C4F"/>
<path d="M506.53 54.2479C505.511 65.4355 507.061 77.2732 502.598 87.6061C499.598 94.5596 487.908 103.999 480.348 103.883C472.788 103.767 458.467 93.607 458.327 87.6417C457.773 63.2366 459.767 38.837 464.291 14.6695C465.325 9.08315 479.695 0.816 487.23 1.20877C494.765 1.60154 506.724 10.5657 507.997 16.7887C510.423 28.8311 506.73 41.6671 505.588 54.1988L506.53 54.2479Z" fill="#1E2C4F"/>
<path d="M546.249 54.2479C545.23 65.4355 546.78 77.2732 542.316 87.6061C539.317 94.5596 527.627 103.999 520.067 103.883C512.507 103.767 498.186 93.607 498.045 87.6417C497.491 63.2366 499.485 38.837 504.009 14.6695C505.044 9.08315 519.414 0.816 526.949 1.20877C534.484 1.60154 546.443 10.5657 547.716 16.7887C550.142 28.8311 546.449 41.6671 545.307 54.1988L546.249 54.2479Z" fill="#1E2C4F"/>
<path d="M585.968 54.2479C584.949 65.4355 586.499 77.2732 582.035 87.6061C579.036 94.5596 567.346 103.999 559.786 103.883C552.225 103.767 537.904 93.607 537.764 87.6417C537.21 63.2366 539.204 38.837 543.728 14.6695C544.763 9.08315 559.133 0.816 566.668 1.20877C574.203 1.60154 586.162 10.5657 587.435 16.7887C589.86 28.8311 586.167 41.6671 585.026 54.1988L585.968 54.2479Z" fill="#1E2C4F"/>
<path d="M625.69 54.2479C624.671 65.4355 626.222 77.2732 621.758 87.6061C618.759 94.5596 607.068 103.999 599.508 103.883C591.948 103.767 577.627 93.607 577.487 87.6417C576.933 63.2366 578.927 38.837 583.451 14.6695C584.485 9.08315 598.855 0.816 606.39 1.20877C613.925 1.60154 625.884 10.5657 627.157 16.7887C629.583 28.8311 625.89 41.6671 624.749 54.1988L625.69 54.2479Z" fill="#1E2C4F"/>
<path d="M665.409 54.2479C664.39 65.4355 665.94 77.2732 661.477 87.6061C658.477 94.5596 646.787 103.999 639.227 103.883C631.667 103.767 617.346 93.607 617.206 87.6417C616.651 63.2366 618.646 38.837 623.17 14.6695C624.204 9.08315 638.574 0.816 646.109 1.20877C653.644 1.60154 665.603 10.5657 666.876 16.7887C669.302 28.8311 665.609 41.6671 664.467 54.1988L665.409 54.2479Z" fill="#1E2C4F"/>
<path d="M705.128 54.2479C704.109 65.4355 705.659 77.2732 701.195 87.6061C698.196 94.5596 686.506 103.999 678.946 103.883C671.386 103.767 657.064 93.607 656.924 87.6417C656.37 63.2366 658.364 38.837 662.888 14.6695C663.923 9.08315 678.293 0.816 685.828 1.20877C693.363 1.60154 705.322 10.5657 706.595 16.7887C709.02 28.8311 705.328 41.6671 704.186 54.1988L705.128 54.2479Z" fill="#1E2C4F"/>
<path d="M744.847 54.2479C743.828 65.4355 745.378 77.2732 740.914 87.6061C737.915 94.5596 726.225 103.999 718.664 103.883C711.104 103.767 696.783 93.607 696.643 87.6417C696.089 63.2366 698.083 38.837 702.607 14.6695C703.642 9.08315 718.012 0.816 725.547 1.20877C733.082 1.60154 745.041 10.5657 746.314 16.7887C748.739 28.8311 745.046 41.6671 743.905 54.1988L744.847 54.2479Z" fill="#1E2C4F"/>
<path d="M784.565 54.2479C783.546 65.4355 785.097 77.2732 780.633 87.6061C777.634 94.5596 765.943 103.999 758.383 103.883C750.823 103.767 736.502 93.607 736.362 87.6417C735.808 63.2366 737.802 38.837 742.326 14.6695C743.36 9.08315 757.73 0.816 765.265 1.20877C772.8 1.60154 784.759 10.5657 786.032 16.7887C788.458 28.8311 784.765 41.6671 783.624 54.1988L784.565 54.2479Z" fill="#1E2C4F"/>
<path d="M824.284 54.2479C823.265 65.4355 824.815 77.2732 820.352 87.6061C817.352 94.5596 805.662 103.999 798.102 103.883C790.542 103.767 776.221 93.607 776.081 87.6417C775.526 63.2366 777.521 38.837 782.045 14.6695C783.079 9.08315 797.449 0.816 804.984 1.20877C812.519 1.60154 824.478 10.5657 825.751 16.7887C828.177 28.8311 824.484 41.6671 823.342 54.1988L824.284 54.2479Z" fill="#1E2C4F"/>
<path d="M864.003 54.2479C862.984 65.4355 864.534 77.2732 860.07 87.6061C857.071 94.5596 845.381 103.999 837.821 103.883C830.261 103.767 815.939 93.607 815.799 87.6417C815.245 63.2366 817.239 38.837 821.763 14.6695C822.798 9.08315 837.168 0.816 844.703 1.20877C852.238 1.60154 864.197 10.5657 865.47 16.7887C867.895 28.8311 864.203 41.6671 863.061 54.1988L864.003 54.2479Z" fill="#1E2C4F"/>
<path d="M903.722 54.2479C902.703 65.4355 904.253 77.2732 899.789 87.6061C896.79 94.5596 885.1 103.999 877.539 103.883C869.979 103.767 855.658 93.607 855.518 87.6417C854.964 63.2366 856.958 38.837 861.482 14.6695C862.517 9.08315 876.887 0.816 884.422 1.20877C891.957 1.60154 903.916 10.5657 905.189 16.7887C907.614 28.8311 903.921 41.6671 902.78 54.1988L903.722 54.2479Z" fill="#1E2C4F"/>
<path d="M943.44 54.2479C942.421 65.4355 943.972 77.2732 939.508 87.6061C936.509 94.5596 924.818 103.999 917.258 103.883C909.698 103.767 895.377 93.607 895.237 87.6417C894.683 63.2366 896.677 38.837 901.201 14.6695C902.235 9.08315 916.605 0.816 924.14 1.20877C931.675 1.60154 943.634 10.5657 944.907 16.7887C947.333 28.8311 943.64 41.6671 942.499 54.1988L943.44 54.2479Z" fill="#1E2C4F"/>
<path d="M983.159 54.2479C982.14 65.4355 983.69 77.2732 979.227 87.6061C976.227 94.5596 964.537 103.999 956.977 103.883C949.417 103.767 935.096 93.607 934.956 87.6417C934.401 63.2366 936.396 38.837 940.92 14.6695C941.954 9.08315 956.324 0.816 963.859 1.20877C971.394 1.60154 983.353 10.5657 984.626 16.7887C987.052 28.8311 983.359 41.6671 982.217 54.1988L983.159 54.2479Z" fill="#1E2C4F"/>
<path d="M1022.88 54.2479C1021.86 65.4355 1023.41 77.2732 1018.95 87.6061C1015.95 94.5596 1004.26 103.999 996.696 103.883C989.136 103.767 974.814 93.607 974.674 87.6417C974.12 63.2366 976.114 38.837 980.638 14.6695C981.673 9.08315 996.043 0.816 1003.58 1.20877C1011.11 1.60154 1023.07 10.5657 1024.34 16.7887C1026.77 28.8311 1023.08 41.6671 1021.94 54.1988L1022.88 54.2479Z" fill="#1E2C4F"/>
<path d="M1062.6 54.2479C1061.58 65.4355 1063.13 77.2732 1058.66 87.6061C1055.66 94.5596 1043.97 103.999 1036.41 103.883C1028.85 103.767 1014.53 93.607 1014.39 87.6417C1013.84 63.2366 1015.83 38.837 1020.36 14.6695C1021.39 9.08315 1035.76 0.816 1043.3 1.20877C1050.83 1.60154 1062.79 10.5657 1064.06 16.7887C1066.49 28.8311 1062.8 41.6671 1061.65 54.1988L1062.6 54.2479Z" fill="#1E2C4F"/>
<path d="M1102.32 54.2479C1101.3 65.4355 1102.85 77.2732 1098.38 87.6061C1095.38 94.5596 1083.69 103.999 1076.13 103.883C1068.57 103.767 1054.25 93.607 1054.11 87.6417C1053.56 63.2366 1055.55 38.837 1060.08 14.6695C1061.11 9.08315 1075.48 0.816 1083.02 1.20877C1090.55 1.60154 1102.51 10.5657 1103.78 16.7887C1106.21 28.8311 1102.52 41.6671 1101.37 54.1988L1102.32 54.2479Z" fill="#1E2C4F"/>
<path d="M1142.04 54.2479C1141.02 65.4355 1142.57 77.2732 1138.11 87.6061C1135.11 94.5596 1123.42 103.999 1115.86 103.883C1108.3 103.767 1093.97 93.607 1093.83 87.6417C1093.28 63.2366 1095.27 38.837 1099.8 14.6695C1100.83 9.08315 1115.2 0.816 1122.74 1.20877C1130.27 1.60154 1142.23 10.5657 1143.51 16.7887C1145.93 28.8311 1142.24 41.6671 1141.1 54.1988L1142.04 54.2479Z" fill="#1E2C4F"/>
<path d="M1181.76 54.2479C1180.74 65.4355 1182.29 77.2732 1177.82 87.6061C1174.83 94.5596 1163.13 103.999 1155.57 103.883C1148.01 103.767 1133.69 93.607 1133.55 87.6417C1133 63.2366 1134.99 38.837 1139.52 14.6695C1140.55 9.08315 1154.92 0.816 1162.46 1.20877C1169.99 1.60154 1181.95 10.5657 1183.22 16.7887C1185.65 28.8311 1181.96 41.6671 1180.81 54.1988L1181.76 54.2479Z" fill="#1E2C4F"/>
<path d="M1221.48 54.2479C1220.46 65.4355 1222.01 77.2732 1217.54 87.6061C1214.54 94.5596 1202.85 103.999 1195.29 103.883C1187.73 103.767 1173.41 93.607 1173.27 87.6417C1172.72 63.2366 1174.71 38.837 1179.24 14.6695C1180.27 9.08315 1194.64 0.816 1202.18 1.20877C1209.71 1.60154 1221.67 10.5657 1222.94 16.7887C1225.37 28.8311 1221.68 41.6671 1220.53 54.1988L1221.48 54.2479Z" fill="#1E2C4F"/>
<path d="M1261.19 54.2479C1260.18 65.4355 1261.73 77.2732 1257.26 87.6061C1254.26 94.5596 1242.57 103.999 1235.01 103.883C1227.45 103.767 1213.13 93.607 1212.99 87.6417C1212.44 63.2366 1214.43 38.837 1218.95 14.6695C1219.99 9.08315 1234.36 0.816 1241.89 1.20877C1249.43 1.60154 1261.39 10.5657 1262.66 16.7887C1265.09 28.8311 1261.39 41.6671 1260.25 54.1988L1261.19 54.2479Z" fill="#1E2C4F"/>
<path d="M1300.91 54.2479C1299.89 65.4355 1301.44 77.2732 1296.98 87.6061C1293.98 94.5596 1282.29 103.999 1274.73 103.883C1267.17 103.767 1252.85 93.607 1252.71 87.6417C1252.16 63.2366 1254.15 38.837 1258.67 14.6695C1259.71 9.08315 1274.08 0.816 1281.61 1.20877C1289.15 1.60154 1301.11 10.5657 1302.38 16.7887C1304.81 28.8311 1301.11 41.6671 1299.97 54.1988L1300.91 54.2479Z" fill="#1E2C4F"/>
<path d="M1340.63 54.2479C1339.61 65.4355 1341.16 77.2732 1336.7 87.6061C1333.7 94.5596 1322.01 103.999 1314.45 103.883C1306.89 103.767 1292.56 93.607 1292.42 87.6417C1291.87 63.2366 1293.86 38.837 1298.39 14.6695C1299.42 9.08315 1313.79 0.816 1321.33 1.20877C1328.86 1.60154 1340.82 10.5657 1342.09 16.7887C1344.52 28.8311 1340.83 41.6671 1339.69 54.1988L1340.63 54.2479Z" fill="#1E2C4F"/>
<path d="M1380.35 54.2479C1379.33 65.4355 1380.88 77.2732 1376.42 87.6061C1373.42 94.5596 1361.73 103.999 1354.17 103.883C1346.61 103.767 1332.29 93.607 1332.15 87.6417C1331.59 63.2366 1333.59 38.837 1338.11 14.6695C1339.15 9.08315 1353.52 0.816 1361.05 1.20877C1368.59 1.60154 1380.54 10.5657 1381.82 16.7887C1384.24 28.8311 1380.55 41.6671 1379.41 54.1988L1380.35 54.2479Z" fill="#1E2C4F"/>
<path d="M1420.07 54.2479C1419.05 65.4355 1420.6 77.2732 1416.14 87.6061C1413.14 94.5596 1401.45 103.999 1393.89 103.883C1386.33 103.767 1372.01 93.607 1371.87 87.6417C1371.31 63.2366 1373.31 38.837 1377.83 14.6695C1378.86 9.08315 1393.23 0.816 1400.77 1.20877C1408.3 1.60154 1420.26 10.5657 1421.54 16.7887C1423.96 28.8311 1420.27 41.6671 1419.13 54.1988L1420.07 54.2479Z" fill="#1E2C4F"/>
<path d="M1459.79 54.2479C1458.77 65.4355 1460.32 77.2732 1455.86 87.6061C1452.86 94.5596 1441.17 103.999 1433.61 103.883C1426.05 103.767 1411.72 93.607 1411.58 87.6417C1411.03 63.2366 1413.02 38.837 1417.55 14.6695C1418.58 9.08315 1432.95 0.816 1440.49 1.20877C1448.02 1.60154 1459.98 10.5657 1461.26 16.7887C1463.68 28.8311 1459.99 41.6671 1458.85 54.1988L1459.79 54.2479Z" fill="#1E2C4F"/>
</g>
<defs>
<filter id="filter0_d_1468_9189" x="-26.4629" y="1.19525" width="1492.53" height="113" filterUnits="userSpaceOnUse" color-interpolation-filters="sRGB">
<feFlood flood-opacity="0" result="BackgroundImageFix"/>
<feColorMatrix in="SourceAlpha" type="matrix" values="0 0 0 0 0 0 0 0 0 0 0 0 0 0 0 0 0 0 127 0" result="hardAlpha"/>
<feOffset dy="4"/>
<feGaussianBlur stdDeviation="2"/>
<feComposite in2="hardAlpha" operator="out"/>
<feColorMatrix type="matrix" values="0 0 0 0 0 0 0 0 0 0 0 0 0 0 0 0 0 0 0.1 0"/>
<feBlend mode="normal" in2="BackgroundImageFix" result="effect1_dropShadow_1468_9189"/>
<feBlend mode="normal" in="SourceGraphic" in2="effect1_dropShadow_1468_9189" result="shape"/>
</filter>
</defs>
</svg>
